<svg width="390" height="180" viewBox="0 0 390 180" fill="none" xmlns="http://www.w3.org/2000/svg">
<path d="M34.0449 95.9609C34.1649 96.2309 34.2949 96.4909 34.4249 96.7609C34.6349 96.9609 34.8549 97.1609 35.0749 97.3509C34.7249 96.8909 34.3849 96.4309 34.0449 95.9609Z" fill="white"/>
<path d="M34.2442 27.2678C34.1542 27.3578 34.0642 27.4478 33.9742 27.5278C33.9242 27.6378 33.8742 27.7378 33.8242 27.8478C33.9642 27.6478 34.1042 27.4578 34.2442 27.2578V27.2678Z" fill="white"/>
<path d="M100.295 5.9575C100.295 5.9575 100.275 5.9475 100.265 5.9375C100.255 5.9375 100.235 5.9375 100.225 5.9375C100.245 5.9375 100.275 5.9575 100.295 5.9575Z" fill="white"/>
<path d="M111.805 107.959C107.055 113.829 104.925 114.839 100.445 117.469C111.535 113.619 122.495 105.349 129.465 96.1094C125.105 100.049 119.175 103.709 113.515 105.319C113.285 105.669 112.065 107.639 111.805 107.969V107.959Z" fill="white"/>
<path d="M82.0441 115.559C81.7041 115.689 81.3641 115.819 81.0141 115.939C75.5841 117.869 69.2641 118.499 63.9141 117.899C68.5841 119.389 74.2641 120.229 79.3641 120.459C86.3741 120.769 94.1041 119.559 100.434 117.469C98.9841 117.639 96.5541 117.949 95.0641 117.949C90.4841 117.949 86.1041 117.109 82.0341 115.559H82.0441Z" fill="white"/>
<path d="M49.9842 105.51C49.7742 105.45 49.5742 105.39 49.3642 105.33C43.9042 103.67 39.0842 100.9 35.0742 97.3398C41.9342 106.34 51.8942 113.42 62.8342 117.27C61.8942 116.71 60.4242 116.02 59.5242 115.37C55.6542 112.6 52.4642 109.24 49.9742 105.51H49.9842Z" fill="white"/>
<path d="M30.5645 78.6891C30.4445 78.5391 30.3345 78.3991 30.2145 78.2491C26.5445 73.4691 24.1845 67.0691 23.0645 61.5391C23.2245 73.9291 27.2545 86.4891 34.0345 95.9491C33.4845 94.7591 32.9945 93.5291 32.5645 92.2691C31.0345 87.7691 30.3945 83.1791 30.5545 78.6891H30.5645Z" fill="white"/>
<path d="M30.494 45.0794C30.494 44.9894 30.494 44.9094 30.484 44.8194C30.284 38.7794 31.504 33.0194 33.834 27.8594C27.524 36.7794 23.624 47.5694 23.134 59.2994C23.114 59.8394 23.094 61.0094 23.084 61.5394C23.314 60.4794 23.584 58.7694 23.904 57.7094C25.334 52.9794 27.604 48.7294 30.504 45.0794H30.494Z" fill="white"/>
<path d="M49.9441 18.4492C49.9741 18.3992 50.0041 18.3492 50.0441 18.2992C53.4941 13.1292 58.7041 8.54922 63.7741 5.69922C52.4941 9.06922 41.3541 17.4892 34.2441 27.2792C35.1941 26.3792 36.1941 25.5292 37.2441 24.7192C41.1441 21.7192 45.4841 19.7392 49.9441 18.4592V18.4492Z" fill="white"/>
<path d="M82.1552 7.95908C88.1352 5.80908 94.3051 5.11908 100.215 5.92908C95.1851 4.26908 89.8352 3.27907 84.2852 3.04907C77.3952 2.75907 70.0052 3.76907 63.7852 5.68907C64.7352 5.58907 66.4151 5.41907 67.3851 5.38907C72.5851 5.21907 77.5851 6.22908 82.1651 7.95908H82.1552Z" fill="white"/>
<path d="M113.385 17.9309C119.225 19.5409 125.025 23.4109 129.265 27.1909C122.175 17.8709 111.705 9.73094 100.285 5.96094C101.185 6.46094 102.085 7.00094 102.955 7.59094C107.195 10.4209 110.685 13.9509 113.375 17.9309H113.385Z" fill="white"/>
<path d="M133.064 45.2475C136.714 49.9175 139.404 56.0175 140.584 61.8775C140.494 49.3575 136.104 36.7375 129.264 27.1875C129.684 28.0775 130.414 29.3575 130.764 30.2975C132.624 35.2275 133.254 40.2975 133.054 45.2475H133.064Z" fill="white"/>
<path d="M133.015 78.2189C133.015 78.2189 133.115 78.7089 133.125 78.7489C133.155 78.8889 133.165 79.0389 133.175 79.1889C133.215 79.5689 133.245 79.9489 133.245 80.3289C133.245 80.8889 133.235 81.4489 133.195 82.0089C133.155 82.5289 133.135 83.0889 133.035 83.6089C132.815 85.4289 132.465 87.2289 131.995 88.9989C131.535 90.7289 130.975 92.4389 130.325 94.0989C130.055 94.7789 129.775 95.4489 129.475 96.1089C135.745 87.2089 140.055 75.8989 140.545 64.2089C140.565 63.6789 140.585 62.4089 140.595 61.8789C140.455 62.5389 140.295 63.9289 140.115 64.5889C138.735 69.7589 136.135 74.2589 133.015 78.2189Z" fill="white"/>
<path d="M96.3154 106.169C92.6154 110.049 87.2954 113.469 82.0254 115.559C93.0654 115.369 105.005 111.279 113.515 105.309C108.315 106.649 101.875 107.169 96.3154 106.159V106.169Z" fill="white"/>
<path d="M67.5444 106.158C62.2144 107.168 55.5444 106.928 49.9844 105.508C58.1044 111.198 68.9444 114.998 79.5844 115.438C80.1444 115.458 81.4644 115.548 82.0244 115.548C76.7844 113.518 71.3644 110.128 67.5444 106.148V106.158Z" fill="white"/>
<path d="M30.5645 78.6875C34.0645 88.8575 41.5344 99.1075 49.9744 105.507C47.0644 100.847 44.7945 94.5575 44.0745 89.1975C39.2045 86.8575 34.1945 83.1175 30.5645 78.6875Z" fill="white"/>
<path d="M30.4752 45.1289C29.1152 49.4989 28.3252 54.7089 28.1252 59.5089C27.8552 65.9689 28.7052 72.8689 30.5652 78.6889C30.8652 72.9889 32.4652 66.8089 35.1252 61.8689C32.4752 57.0389 30.8052 50.9789 30.4752 45.1289Z" fill="white"/>
<path d="M44.0146 34.5592C44.7246 29.1392 46.8046 23.3392 49.9446 18.4492C41.3446 24.8892 33.9946 34.6792 30.4746 45.1392C34.0346 40.7892 39.0246 36.9592 44.0146 34.5592Z" fill="white"/>
<path d="M35.135 61.8691C35.195 61.9791 35.255 62.0791 35.305 62.1891C35.305 61.9791 35.305 61.7591 35.305 61.5391C35.245 61.6491 35.185 61.7591 35.125 61.8691H35.135Z" fill="white"/>
<path d="M82.1246 7.95778C81.6946 7.93778 81.2546 7.95777 80.8246 7.96777C80.3946 7.97777 79.9446 8.00778 79.5146 8.02778C78.6446 8.07778 77.7746 8.13777 76.9046 8.22777C76.0346 8.31777 75.1746 8.41777 74.3146 8.54777C73.4546 8.67777 72.6046 8.81778 71.7446 8.98778C70.8846 9.15778 70.0546 9.33777 69.2146 9.54777C68.3746 9.74777 67.5446 9.97777 66.7246 10.2178C65.9046 10.4578 65.0846 10.7178 64.2746 10.9978C63.4646 11.2778 62.6646 11.5778 61.8746 11.8878C61.0846 12.1978 60.3046 12.5378 59.5346 12.8878C58.7646 13.2378 58.0046 13.5978 57.2546 13.9878C56.5046 14.3778 55.7646 14.7678 55.0446 15.1878C54.3246 15.5978 53.6046 16.0278 52.9046 16.4778C52.2046 16.9178 51.5146 17.3878 50.8446 17.8578C50.7046 17.9578 50.1146 18.3378 49.9746 18.4478C55.5546 16.9178 61.8046 16.4178 67.4046 17.4378C67.4346 17.4378 67.5846 17.2478 67.6046 17.2278C67.6746 17.1578 67.7446 17.0778 67.8146 17.0078C67.9546 16.8578 68.1046 16.7178 68.2446 16.5778C68.5346 16.2878 68.8346 16.0078 69.1346 15.7278C69.7346 15.1678 70.3646 14.6278 71.0046 14.1078C71.6446 13.5878 72.3046 13.0878 72.9846 12.6078C73.6646 12.1278 74.3646 11.6678 75.0746 11.2278C75.7946 10.7878 76.5246 10.3678 77.2746 9.97777C78.1346 9.52777 79.0046 9.11777 79.8846 8.72777C80.2446 8.56777 80.6046 8.40778 80.9746 8.26778C80.9746 8.26778 81.2846 8.10777 82.1446 7.96777L82.1246 7.95778Z" fill="white"/>
<path d="M96.1241 17.3609C101.414 16.3809 107.834 16.5109 113.384 17.9309C105.254 12.2209 94.7341 8.51094 84.0741 8.06094C83.5941 8.04094 82.6341 7.97094 82.1641 7.96094C85.4641 8.91094 92.3341 13.3809 96.1341 17.3509L96.1241 17.3609Z" fill="white"/>
<path d="M67.3747 17.4297C67.3747 17.4297 67.3247 17.4797 67.3047 17.5097C67.3647 17.4897 67.4247 17.4697 67.4847 17.4497C67.4447 17.4497 67.4147 17.4397 67.3747 17.4297Z" fill="white"/>
<path d="M133.065 45.2497C129.555 34.6897 122.195 24.4597 113.395 17.9297C116.505 22.7197 118.885 28.7597 119.625 34.3397C124.855 36.8397 129.565 40.9097 133.065 45.2497Z" fill="white"/>
<path d="M119.644 89.2009C118.954 94.6109 116.604 100.451 113.514 105.311C122.114 98.8709 129.494 88.6609 133.014 78.2109C129.434 82.5809 124.684 86.7909 119.644 89.2009Z" fill="white"/>
<path d="M133.014 78.22C134.344 73.9 135.324 68.73 135.524 64C135.784 57.68 134.834 50.97 133.064 45.25C132.754 50.86 131.114 56.91 128.504 61.8C131.074 66.56 132.684 72.51 133.014 78.21V78.22Z" fill="white"/>
<path d="M119.645 89.1998C119.645 89.1998 119.655 89.1298 119.665 89.0898C119.625 89.1398 119.585 89.1998 119.555 89.2498C119.585 89.2298 119.625 89.2198 119.655 89.1998H119.645Z" fill="white"/>
<path d="M119.635 34.4308C119.635 34.4308 119.635 34.3708 119.625 34.3408C119.595 34.3308 119.575 34.3108 119.545 34.3008C119.575 34.3408 119.605 34.3808 119.635 34.4308Z" fill="white"/>
<path d="M81.7352 100.289C77.5652 103.099 72.5052 105.159 67.5352 106.159C71.3452 107.359 75.7651 108.159 79.9451 108.339C85.4651 108.569 91.3052 107.729 96.2952 106.169C95.3952 106.129 94.1052 105.909 93.2652 105.679C89.0452 104.549 85.1451 102.599 81.7251 100.289H81.7352Z" fill="white"/>
<path d="M44.084 89.1992C49.714 96.6992 58.394 103.129 67.544 106.159C64.084 102.479 61.114 97.9192 59.324 93.0992C54.284 92.9292 48.704 91.3192 44.084 89.2092V89.1992Z" fill="white"/>
<path d="M45.1047 73.6175C41.1347 70.5075 37.7947 66.6275 35.3047 62.1875C35.3847 71.9875 38.7747 81.6875 44.0847 89.1975C43.5147 84.2075 43.6647 78.5375 45.1047 73.6175Z" fill="white"/>
<path d="M45.0947 49.9986C43.6847 45.1286 43.4247 39.6386 44.0147 34.5586C39.0147 41.6386 35.7347 50.5286 35.3447 59.8286C35.3247 60.3986 35.3147 60.9686 35.3047 61.5386C37.7447 57.1186 41.0547 53.1786 45.0947 49.9986Z" fill="white"/>
<path d="M45.1035 73.6191C45.1035 73.6191 45.1435 73.6491 45.1635 73.6691C45.1535 73.6291 45.1335 73.5791 45.1235 73.5391C45.1235 73.5691 45.1135 73.5891 45.1035 73.6191Z" fill="white"/>
<path d="M59.2137 30.5495C60.9937 25.7295 63.7337 21.2895 67.3037 17.5195C58.0637 20.5695 49.7037 26.8495 44.0137 34.5595C48.5937 32.4295 53.9637 30.7995 59.1137 30.6195C59.1437 30.5995 59.1737 30.5695 59.2037 30.5495H59.2137Z" fill="white"/>
<path d="M45.0938 49.9987C45.0938 49.9987 45.0937 50.0287 45.1037 50.0387C45.1037 50.0187 45.1137 49.9987 45.1237 49.9688C45.1137 49.9688 45.1037 49.9887 45.0938 49.9987Z" fill="white"/>
<path d="M96.1244 17.3576C92.3444 16.1876 87.9844 15.3976 83.8544 15.2176C78.1444 14.9776 72.6244 15.7776 67.4844 17.4576C72.4944 18.3876 77.3344 20.3176 81.6744 23.2076C85.8944 20.3276 91.0544 18.3776 96.1244 17.3576Z" fill="white"/>
<path d="M112.995 31.8994C115.285 32.5094 117.465 33.3194 119.535 34.2994C113.895 26.5794 105.445 20.4494 96.125 17.3594C99.605 21.0894 102.815 25.7194 104.585 30.6294C107.375 30.7394 110.195 31.1494 112.995 31.8994Z" fill="white"/>
<path d="M81.6743 23.1992C81.6743 23.1992 81.6643 23.2092 81.6543 23.2192C81.6743 23.2192 81.6843 23.2192 81.7043 23.2192C81.7043 23.2192 81.6843 23.2092 81.6843 23.1992H81.6743Z" fill="white"/>
<path d="M96.3145 106.17C105.514 103.08 113.904 96.97 119.554 89.25C114.954 91.43 109.904 92.7 104.684 92.9C102.954 97.72 99.8245 102.39 96.3145 106.17Z" fill="white"/>
<path d="M118.414 73.9008C119.804 78.8108 120.294 83.9908 119.664 89.0908C124.854 81.9308 128.064 73.2208 128.464 63.7208C128.484 63.2008 128.494 62.3108 128.504 61.8008C126.034 66.3008 122.564 70.6708 118.414 73.9008Z" fill="white"/>
<path d="M104.674 92.8983C104.694 92.8483 104.714 92.7983 104.734 92.7383C104.664 92.7883 104.584 92.8483 104.514 92.8983C104.564 92.8983 104.624 92.8983 104.674 92.8983Z" fill="white"/>
<path d="M118.465 49.7597C122.525 52.9297 125.995 57.2697 128.505 61.8097C128.435 51.7797 125.165 42.0497 119.635 34.4297C120.295 39.4997 119.885 44.7297 118.465 49.7597Z" fill="white"/>
<path d="M104.595 30.6589C104.595 30.6589 104.595 30.6389 104.585 30.6289C104.575 30.6289 104.565 30.6289 104.555 30.6289C104.565 30.6389 104.585 30.6489 104.605 30.6589H104.595Z" fill="white"/>
<path d="M72.3442 91.0195C68.1742 92.3795 63.6242 93.2095 59.3242 93.0995C65.1942 97.2795 72.4842 99.9395 80.2142 100.26C80.6542 100.28 81.2942 100.29 81.7342 100.29C78.1342 97.8195 74.8642 94.4795 72.3442 91.0195Z" fill="white"/>
<path d="M45.1741 73.668C47.7041 81.458 52.8041 88.348 59.3241 93.088C57.8441 89.018 56.8941 84.468 56.8841 79.888C52.6041 78.508 48.6441 76.378 45.1641 73.668H45.1741Z" fill="white"/>
<path d="M50.9046 61.8473C48.2746 58.2473 46.3346 54.2373 45.1046 50.0273C44.0846 53.2273 43.4646 56.6173 43.3246 60.1373C43.1246 64.8173 43.7746 69.3273 45.1246 73.5373C46.3046 69.5373 48.1546 65.6673 50.7246 62.0873C50.7846 62.0073 50.8446 61.9273 50.9046 61.8373V61.8473Z" fill="white"/>
<path d="M59.215 30.5508C59.215 30.5508 59.155 30.6008 59.125 30.6208C59.145 30.6208 59.175 30.6208 59.195 30.6208C59.195 30.6008 59.215 30.5808 59.215 30.5508Z" fill="white"/>
<path d="M56.925 43.8072C56.925 39.2972 57.655 34.7672 59.185 30.6172C59.165 30.6172 59.135 30.6172 59.115 30.6172C52.615 35.3572 47.645 42.0972 45.125 49.9672C45.125 49.9672 51.185 45.5972 56.925 43.8072Z" fill="white"/>
<path d="M72.2353 32.6087C72.4653 32.6787 72.0053 32.5387 72.2353 32.6087C74.8453 28.9687 78.0253 25.7088 81.6553 23.2188C73.3153 23.2487 65.5453 25.9588 59.2153 30.5488C59.2153 30.5688 59.1953 30.5888 59.1953 30.6188C63.2553 30.4888 68.1353 31.3687 72.2353 32.6087Z" fill="white"/>
<path d="M90.7951 31.7388C90.9651 31.9588 91.1251 32.1688 91.2851 32.3888C91.3351 32.4088 91.3851 32.4188 91.4451 32.4388C95.6151 31.0888 100.045 30.4488 104.555 30.6188C98.6051 26.2688 91.3551 23.5787 83.4451 23.2487C82.8651 23.2287 82.2851 23.2188 81.7051 23.2188C85.0951 25.4787 88.1751 28.3288 90.7951 31.7388Z" fill="white"/>
<path d="M93.3644 91.6186C92.7244 91.4486 92.0944 91.2586 91.4644 91.0586C88.8544 94.6986 85.3644 97.8086 81.7344 100.279C90.1044 100.239 98.1744 97.5186 104.514 92.8886C100.844 93.0086 97.0944 92.6086 93.3644 91.6086V91.6186Z" fill="white"/>
<path d="M106.864 80.0002C106.864 84.3702 106.164 88.7102 104.734 92.7502C111.004 88.1102 115.874 81.5002 118.414 73.9102C115.494 76.1602 112.144 78.1402 108.514 79.5102C107.994 79.7102 107.394 79.8302 106.864 80.0002Z" fill="white"/>
<path d="M91.4648 91.07C91.4648 91.07 91.4948 91.02 91.5148 91C91.4748 91.01 91.4248 91.03 91.3848 91.04C91.4148 91.04 91.4348 91.06 91.4648 91.07Z" fill="white"/>
<path d="M112.844 61.53C112.844 61.73 112.844 61.94 112.844 62.14C115.384 65.7 117.224 69.78 118.414 73.9C119.494 70.61 120.174 66.99 120.334 63.36C120.534 58.64 119.844 53.99 118.464 49.75C117.404 53.46 115.784 57.16 113.524 60.54C113.304 60.87 113.074 61.2 112.844 61.52V61.53Z" fill="white"/>
<path d="M106.824 43.4602C106.824 43.4602 106.874 43.5302 106.904 43.5702C111.114 44.9402 115.034 47.1102 118.464 49.7602C115.934 42.0902 111.014 35.3702 104.594 30.6602C105.904 34.3102 106.674 38.2102 106.804 42.2902C106.814 42.6802 106.824 43.0702 106.824 43.4602Z" fill="white"/>
<path d="M56.8848 79.8906C60.4848 84.7206 66.5248 88.9606 72.3448 91.0206C70.4048 88.2406 68.3548 84.9106 67.2048 81.7106C63.8348 81.5906 59.9948 80.8406 56.8848 79.8906Z" fill="white"/>
<path d="M50.9045 61.8477C51.0545 68.0477 53.5445 75.0977 56.8845 79.8877C56.9345 76.4977 57.4345 72.6077 58.3145 69.4877C55.6645 67.4277 52.8545 64.4177 50.8945 61.8477H50.9045Z" fill="white"/>
<path d="M58.3048 54.1986C57.3648 50.8886 56.9748 47.1186 56.9348 43.8086C53.7348 48.4286 51.1648 55.7086 50.9048 61.7386C50.8948 61.9886 50.9048 61.5986 50.9048 61.8486C52.9448 59.1686 55.7648 56.1786 58.3048 54.1986Z" fill="white"/>
<path d="M58.3145 69.4872C58.3145 69.4872 58.3744 69.5372 58.4044 69.5572C58.3844 69.4972 58.3645 69.4272 58.3445 69.3672C58.3345 69.4072 58.3245 69.4472 58.3145 69.4872Z" fill="white"/>
<path d="M72.2336 32.6094C66.3236 34.6694 60.5836 38.8394 56.9336 43.8094C60.2336 42.7794 63.9736 41.9594 67.2736 41.8294C68.4536 38.5194 70.2736 35.3694 72.2236 32.6094H72.2336Z" fill="white"/>
<path d="M58.3049 54.198C58.3049 54.198 58.3049 54.228 58.3149 54.248C58.3149 54.218 58.3349 54.198 58.3349 54.168C58.3249 54.168 58.3149 54.188 58.2949 54.198H58.3049Z" fill="white"/>
<path d="M91.3452 32.4706C91.3452 32.4706 91.4051 32.4506 91.4451 32.4406C91.3951 32.4206 91.3452 32.4106 91.2852 32.3906C91.3052 32.4206 91.3252 32.4406 91.3452 32.4706Z" fill="white"/>
<path d="M81.8246 37.0791C81.8246 37.0791 81.8546 37.0791 81.8646 37.0791C84.7846 35.1191 87.9746 33.5691 91.3346 32.4691C91.3146 32.4391 91.2946 32.4191 91.2746 32.3891C88.7746 31.6091 86.1346 31.1391 83.3946 31.0291C79.5746 30.8691 75.6546 31.4791 72.2246 32.6091C75.5846 33.7191 78.9146 35.1991 81.7146 37.0791C81.7446 37.0791 81.7846 37.0791 81.8146 37.0791H81.8246Z" fill="white"/>
<path d="M72.3438 91.0195C74.8238 91.7895 78.1137 92.3195 80.8337 92.4295C84.5137 92.5795 88.0637 92.0795 91.3837 91.0295C88.0037 89.9295 84.8837 88.3995 82.0437 86.5195C79.1837 88.4795 75.4838 89.9295 72.3438 91.0095V91.0195Z" fill="white"/>
<path d="M67.2041 81.7077C67.2041 81.7077 67.2841 81.7077 67.3241 81.7077C67.2741 81.6677 67.2241 81.6277 67.1641 81.5977C67.1741 81.6377 67.1941 81.6677 67.2041 81.7077Z" fill="white"/>
<path d="M91.5137 91C97.6337 89.03 103.074 85.07 106.864 80C103.404 81.12 99.6537 81.74 96.1737 81.85C94.9737 85.14 93.4637 88.27 91.5137 91Z" fill="white"/>
<path d="M82.0443 86.5297C82.0443 86.5297 82.1443 86.4597 82.1943 86.4297C82.0943 86.4297 82.0043 86.4297 81.9043 86.4297C81.9543 86.4597 81.9943 86.4997 82.0443 86.5297Z" fill="white"/>
<path d="M112.845 62.1373C112.845 61.9373 112.845 61.7273 112.845 61.5273C112.775 61.6273 112.695 61.7373 112.625 61.8373C112.695 61.9373 112.775 62.0373 112.845 62.1373Z" fill="white"/>
<path d="M105.404 69.3398C106.424 72.8398 106.844 76.5098 106.864 79.9898C110.334 75.2498 112.554 69.3198 112.824 63.0098C112.834 62.7198 112.844 62.4298 112.844 62.1398C112.774 62.0398 112.694 61.9398 112.624 61.8398C110.524 64.7298 108.094 67.2298 105.404 69.3498V69.3398Z" fill="white"/>
<path d="M106.904 43.5709C106.904 43.5709 106.854 43.5009 106.824 43.4609C106.824 43.4909 106.824 43.5109 106.824 43.5409C106.854 43.5409 106.874 43.5609 106.904 43.5709Z" fill="white"/>
<path d="M105.324 54.1991C105.324 54.1991 105.354 54.2791 105.364 54.3191C108.184 56.5291 110.604 59.0691 112.624 61.8391C112.694 61.7391 112.774 61.6291 112.844 61.5291C112.804 54.8391 110.614 48.6291 106.904 43.5691C106.874 43.5691 106.854 43.5491 106.824 43.5391C106.824 47.2291 106.304 50.8091 105.324 54.1991Z" fill="white"/>
<path d="M105.275 69.4492C105.275 69.4492 105.365 69.3792 105.405 69.3492C105.385 69.2992 105.375 69.2492 105.355 69.1992C105.325 69.2892 105.295 69.3692 105.275 69.4592V69.4492Z" fill="white"/>
<path d="M96.314 41.7175C99.974 41.8375 103.494 42.4675 106.824 43.5375C106.824 43.5075 106.824 43.4875 106.824 43.4575C103.034 38.3375 97.684 34.4175 91.434 32.4375C91.404 32.4475 91.374 32.4575 91.334 32.4675C93.464 35.3775 95.114 38.4875 96.314 41.7175Z" fill="white"/>
<path d="M96.3546 41.8088C96.3546 41.8088 96.3346 41.7487 96.3246 41.7188C96.2946 41.7188 96.2646 41.7188 96.2246 41.7188C96.2646 41.7487 96.3146 41.7788 96.3546 41.8088Z" fill="white"/>
<path d="M60.5641 71.1086C59.8241 70.6186 59.1041 70.0986 58.4141 69.5586C60.0341 74.4186 63.1241 78.6086 67.1641 81.5986C66.2641 79.0886 65.6241 76.4686 65.2741 73.7886C63.6641 73.0186 62.0941 72.1286 60.5641 71.1086Z" fill="white"/>
<path d="M59.3043 57.25C58.9243 56.25 58.6043 55.25 58.3143 54.25C57.5543 56.62 57.1543 59.14 57.1543 61.76C57.1543 64.38 57.5743 66.98 58.3543 69.38C59.1043 66.75 60.1343 64.23 61.4043 61.86C60.6143 60.39 59.9143 58.85 59.3143 57.25H59.3043Z" fill="white"/>
<path d="M65.3438 49.7881C65.5637 48.1481 65.8837 46.5081 66.3237 44.8781C66.6037 43.8381 66.9237 42.8281 67.2737 41.8281C63.1237 44.8681 59.9538 49.1681 58.3438 54.1681C60.5138 52.4781 62.8437 51.0481 65.2737 49.8881C65.2937 49.8581 65.3238 49.8181 65.3438 49.7881Z" fill="white"/>
<path d="M61.4643 61.7383C61.4643 61.7383 61.4243 61.8183 61.4043 61.8483C61.4243 61.8883 61.4443 61.9283 61.4643 61.9683C61.4643 61.8983 61.4643 61.8283 61.4643 61.7483C61.4643 61.7483 61.4643 61.7483 61.4643 61.7383Z" fill="white"/>
<path d="M81.8646 37.0781C81.8646 37.0781 81.8346 37.0781 81.8246 37.0781C81.7946 37.0781 81.7546 37.0781 81.7246 37.0781C81.7446 37.0981 81.7746 37.1081 81.7946 37.1281C81.8146 37.1081 81.8446 37.0981 81.8646 37.0781Z" fill="white"/>
<path d="M75.4754 42.4003C75.4754 42.4003 75.5354 42.3803 75.5554 42.3703C77.4454 40.4003 79.5454 38.6403 81.7954 37.1203C81.7754 37.1003 81.7454 37.0903 81.7254 37.0703C76.3254 37.0903 71.3354 38.8503 67.2754 41.8103C70.0454 41.7003 72.7954 41.9003 75.4754 42.3803V42.4003Z" fill="white"/>
<path d="M75.6445 81.1572C75.6445 81.1572 75.5545 81.1272 75.5045 81.1172C73.6845 81.4472 71.8144 81.6572 69.9044 81.7172C69.0344 81.7472 68.1745 81.7472 67.3145 81.7172C71.3845 84.6772 76.3944 86.4272 81.8244 86.4272C81.8544 86.4272 81.8744 86.4272 81.9044 86.4272C79.6144 84.8872 77.5245 83.1172 75.6445 81.1672V81.1572Z" fill="white"/>
<path d="M65.2739 73.7903C65.3439 73.8203 65.4039 73.8503 65.4739 73.8803C65.3939 73.7803 65.3239 73.6803 65.2539 73.5703C65.2539 73.6403 65.2739 73.7103 65.2839 73.7803L65.2739 73.7903Z" fill="white"/>
<path d="M88.1053 81.2092C86.7653 82.6092 85.3453 84.0692 83.7653 85.2792C83.2453 85.6792 82.7253 86.0592 82.1953 86.4192C87.3253 86.3392 92.2553 84.5992 96.1653 81.8392C93.5153 81.9092 90.6653 81.6692 88.1053 81.1992V81.2092Z" fill="white"/>
<path d="M96.9838 79.8692C96.7938 80.4792 96.3838 81.2592 96.1738 81.8492C100.294 78.8292 103.654 74.3992 105.284 69.4492C103.104 71.1492 100.764 72.5992 98.3038 73.7792C98.0338 75.8092 97.6038 77.8492 96.9838 79.8692Z" fill="white"/>
<path d="M105.365 54.3192C105.365 54.3192 105.335 54.2392 105.325 54.1992C105.325 54.2192 105.315 54.2492 105.305 54.2692C105.325 54.2892 105.345 54.2992 105.365 54.3192Z" fill="white"/>
<path d="M102.254 61.6795C103.284 63.5795 104.174 65.5895 104.894 67.7095C105.064 68.1995 105.214 68.6895 105.364 69.1895C106.104 66.8395 106.504 64.3495 106.504 61.7595C106.504 59.1695 106.104 56.6695 105.364 54.3195C105.344 54.2995 105.324 54.2895 105.304 54.2695C104.544 56.8595 103.524 59.3495 102.254 61.6795Z" fill="white"/>
<path d="M98.3041 73.7687C98.3041 73.7687 98.3041 73.7287 98.3041 73.7188C98.2841 73.7487 98.2641 73.7688 98.2441 73.7988C98.2641 73.7988 98.2741 73.7787 98.2941 73.7787L98.3041 73.7687Z" fill="white"/>
<path d="M96.3535 41.8086C97.3235 44.4286 97.9835 47.1286 98.3535 49.8486C98.3835 49.8986 98.4235 49.9386 98.4535 49.9886C100.364 50.9186 102.224 52.0186 104.004 53.2986C104.444 53.6186 104.874 53.9386 105.304 54.2686C105.304 54.2486 105.314 54.2186 105.324 54.1986C103.714 49.1786 100.524 44.8486 96.3535 41.8086Z" fill="white"/>
<path d="M102.195 61.7486C102.195 61.7486 102.195 61.7786 102.195 61.7886C102.215 61.7486 102.235 61.7086 102.255 61.6786C102.235 61.6386 102.215 61.5986 102.195 61.5586C102.195 61.6186 102.195 61.6886 102.195 61.7486Z" fill="white"/>
<path d="M87.9849 42.3398C87.9849 42.3398 88.0049 42.3398 88.0149 42.3498C90.3049 41.9198 92.6649 41.6998 95.0749 41.6998C95.4549 41.6998 95.8449 41.6998 96.2249 41.7198C92.1849 38.8098 87.2249 37.0998 81.8649 37.0898C81.8449 37.1098 81.8149 37.1198 81.7949 37.1398C84.0549 38.6598 86.1249 40.4198 87.9749 42.3498L87.9849 42.3398Z" fill="white"/>
<path d="M64.9748 67.3288C63.6748 65.6688 62.4948 63.8687 61.4648 61.9688C61.5148 66.2987 62.9048 70.2988 65.2448 73.5788C64.9848 71.5288 64.8848 69.4388 64.9748 67.3288Z" fill="white"/>
<path d="M65.3454 49.7891C65.3454 49.7891 65.2954 49.8591 65.2754 49.8891C65.2954 49.8791 65.3154 49.8691 65.3454 49.8591C65.3454 49.8391 65.3454 49.8091 65.3454 49.7891Z" fill="white"/>
<path d="M65.3448 49.8594C65.3448 49.8594 65.3048 49.8794 65.2748 49.8894C62.8748 53.2294 61.4648 57.3194 61.4648 61.7394C62.5048 59.8094 63.7048 57.9894 65.0548 56.2794C64.9648 54.1594 65.0548 52.0094 65.3448 49.8594Z" fill="white"/>
<path d="M75.5546 42.3772C75.5546 42.3772 75.4946 42.3972 75.4746 42.4072C75.4946 42.4072 75.5046 42.4072 75.5246 42.4072C75.5346 42.3972 75.5446 42.3872 75.5546 42.3672V42.3772Z" fill="white"/>
<path d="M71.3637 47.6002C72.6037 45.7402 74.0037 44.0102 75.5237 42.4102C75.5037 42.4102 75.4937 42.4102 75.4737 42.4102C71.3637 43.7602 67.8338 46.3702 65.3438 49.8002C65.3438 49.8202 65.3438 49.8502 65.3438 49.8702C67.2938 48.9502 69.3037 48.1902 71.3637 47.6102V47.6002Z" fill="white"/>
<path d="M75.5137 81.1177C75.5137 81.1177 75.6037 81.1477 75.6537 81.1577C75.6337 81.1377 75.6137 81.1177 75.6037 81.0977C75.5737 81.0977 75.5537 81.0977 75.5237 81.1077L75.5137 81.1177Z" fill="white"/>
<path d="M71.6146 76.1706C69.5246 75.5906 67.4746 74.8406 65.4746 73.8906C67.9646 77.2406 71.5446 79.7906 75.5946 81.1106C75.6246 81.1106 75.5646 81.1106 75.5946 81.1106C74.1346 79.5706 72.8046 77.9206 71.6146 76.1706Z" fill="white"/>
<path d="M75.5948 81.0983C77.5448 81.7183 79.6748 82.1083 81.8248 82.1083C83.9748 82.1083 86.2448 81.7583 88.1048 81.1983C86.0048 80.7883 83.5448 80.2383 81.5548 79.4883C79.6348 80.1783 77.6448 80.7183 75.5948 81.0983Z" fill="white"/>
<path d="M88.1035 81.2108C92.0635 79.8508 95.8135 77.1008 98.2435 73.8008C96.3535 74.7008 94.3935 75.4508 92.3835 76.0308C91.2335 77.7808 89.5635 79.6508 88.1035 81.2108Z" fill="white"/>
<path d="M98.3047 73.7208C100.745 70.3708 102.185 66.2508 102.185 61.8008C101.145 63.7108 99.9347 65.5308 98.5947 67.2308C98.6847 69.3708 98.5947 71.5408 98.3047 73.7208Z" fill="white"/>
<path d="M98.4437 49.9877C98.4437 49.9877 98.3737 49.8977 98.3438 49.8477C98.3438 49.8777 98.3437 49.9077 98.3537 49.9377C98.3837 49.9477 98.4137 49.9677 98.4437 49.9777V49.9877Z" fill="white"/>
<path d="M98.6752 56.2675C99.9752 57.9175 101.155 59.6775 102.195 61.5575C102.155 57.2475 100.775 53.2575 98.4552 49.9775C98.4252 49.9675 98.3952 49.9475 98.3652 49.9375C98.6452 52.0375 98.7452 54.1575 98.6752 56.2675Z" fill="white"/>
<path d="M88.0144 42.3498C88.0144 42.3498 87.9944 42.3498 87.9844 42.3398C87.9844 42.3398 87.9844 42.3398 87.9944 42.3498C87.9944 42.3498 88.0044 42.3498 88.0144 42.3498Z" fill="white"/>
<path d="M88.0141 42.3477C88.0141 42.3477 88.0041 42.3477 87.9941 42.3477C89.5541 43.9777 90.9641 45.7277 92.2041 47.5977C94.2941 48.1877 96.3641 48.9777 98.3641 49.9477C98.3641 49.9177 98.3641 49.8877 98.3541 49.8577C95.8241 46.3577 92.2241 43.6977 88.0141 42.3577V42.3477Z" fill="white"/>
<path d="M81.7352 44.0906C83.7452 43.3406 85.8351 42.7606 87.9951 42.3506C87.9951 42.3506 87.9952 42.3506 87.9852 42.3406C86.0452 41.7306 83.9751 41.3906 81.8351 41.3906C79.6951 41.3906 77.5452 41.7406 75.5652 42.3806C75.5552 42.3906 75.5452 42.4006 75.5352 42.4206C77.6552 42.8106 79.7352 43.3706 81.7552 44.1006L81.7352 44.0906Z" fill="white"/>
<path d="M81.8237 61.8075C81.8568 61.8075 81.8837 61.7806 81.8837 61.7475C81.8837 61.7144 81.8568 61.6875 81.8237 61.6875C81.7905 61.6875 81.7637 61.7144 81.7637 61.7475C81.7637 61.7806 81.7905 61.8075 81.8237 61.8075Z" fill="white"/>
<path d="M152.094 152.868C152.194 152.508 152.134 152.798 152.094 152.868Z" fill="white"/>
<path d="M152.094 152.868C152.194 152.508 152.134 152.798 152.094 152.868C152.264 153.708 152.434 154.508 152.604 155.308C153.804 155.288 155.004 155.288 156.204 155.298H157.384C156.824 154.798 156.484 153.998 156.374 153.278C156.254 152.528 156.184 151.768 156.174 151.008C156.154 147.578 156.174 144.148 156.174 140.718C156.174 140.418 156.174 140.118 156.154 139.818C156.044 138.138 155.314 136.788 153.994 135.758C153.324 135.228 152.584 134.848 151.784 134.548C150.324 133.998 148.804 133.758 147.264 133.648C145.434 133.518 143.624 133.588 141.814 133.888C139.764 134.228 137.924 135.098 136.114 136.048C136.084 136.068 136.074 136.118 136.034 136.198C136.624 137.378 137.294 138.648 137.914 139.878C138.054 139.788 138.064 139.698 138.114 139.638C139.074 138.508 140.344 137.888 141.744 137.518C143.924 136.938 146.144 136.928 148.364 137.228C149.144 137.338 149.894 137.538 150.594 137.918C151.754 138.568 152.224 139.588 152.124 140.878C152.054 141.738 151.724 142.158 150.884 142.358C150.324 142.488 149.734 142.578 149.164 142.588C147.344 142.618 145.514 142.588 143.694 142.628C142.414 142.658 141.124 142.708 139.854 142.858C137.434 143.148 135.454 144.988 134.934 147.348C134.764 148.138 134.784 148.938 134.864 149.738C135.094 151.928 136.164 153.528 138.184 154.458C138.524 154.618 138.894 154.748 139.254 154.858C140.524 155.278 141.834 155.428 143.154 155.508C144.964 155.618 146.764 155.598 148.534 155.198C149.924 154.878 151.324 154.128 152.094 152.858V152.868ZM141.744 151.748C141.194 151.598 140.644 151.358 140.174 151.038C138.974 150.218 138.734 148.118 139.754 147.068C140.504 146.288 141.764 146.238 142.774 146.158C144.034 146.058 145.304 146.058 146.574 146.058C148.444 146.058 150.514 146.128 152.194 145.208C152.154 146.358 152.314 147.418 152.054 148.458C151.754 149.658 151.004 150.508 149.954 151.108C149.004 151.658 147.964 151.938 146.874 152.048C145.154 152.218 143.434 152.208 141.744 151.748Z" fill="white"/>
<path d="M29.434 154.977C28.934 154.427 28.654 153.757 28.554 153.037C28.474 152.427 28.414 151.797 28.404 151.187C28.384 148.717 28.404 146.257 28.404 143.787C28.404 142.507 28.424 141.217 28.384 139.937C28.324 138.167 27.534 136.747 26.124 135.677C25.364 135.107 24.514 134.697 23.614 134.407C20.754 133.487 17.824 133.437 14.874 133.757C12.514 134.007 10.404 134.957 8.33398 136.037L8.22398 136.097C8.81398 137.277 9.55398 138.677 10.144 139.857L10.334 139.627C11.334 138.467 12.634 137.847 14.084 137.477C16.234 136.927 18.404 136.897 20.584 137.227C21.254 137.327 21.924 137.517 22.534 137.787C23.864 138.357 24.444 139.427 24.334 140.877C24.274 141.697 23.944 142.147 23.154 142.347C22.594 142.487 22.014 142.567 21.434 142.587C20.054 142.627 18.664 142.617 17.284 142.617C15.564 142.617 13.834 142.617 12.124 142.837C9.67398 143.157 7.66398 144.977 7.14398 147.347C6.93398 148.287 6.97398 149.217 7.13398 150.157C7.47398 152.217 8.59398 153.677 10.514 154.507C10.934 154.687 11.374 154.847 11.814 154.967C14.024 155.557 16.284 155.657 18.554 155.497C19.424 155.437 20.304 155.287 21.154 155.087C22.404 154.787 23.444 154.137 24.134 153.007C24.174 152.947 24.234 152.897 24.334 152.797C24.464 153.507 24.554 154.147 24.714 154.757C24.844 155.267 24.894 155.287 25.424 155.287C26.624 155.287 27.834 155.287 29.034 155.287C29.204 155.287 29.374 155.257 29.604 155.237C29.534 155.107 29.504 155.027 29.454 154.967L29.434 154.977ZM24.384 147.827C24.274 149.097 23.644 150.087 22.604 150.827C21.804 151.387 20.914 151.727 19.954 151.907C17.934 152.277 15.924 152.237 13.934 151.737C13.424 151.607 12.904 151.377 12.464 151.087C11.304 150.327 10.984 148.417 11.784 147.277C12.084 146.847 12.504 146.557 13.004 146.447C13.724 146.287 14.454 146.117 15.184 146.087C16.664 146.017 18.144 146.057 19.624 146.017C20.624 145.987 21.624 145.947 22.614 145.827C23.194 145.757 23.754 145.497 24.384 145.307C24.384 146.157 24.444 146.997 24.374 147.827H24.384Z" fill="white"/>
<path d="M34.714 148.819C34.824 148.909 34.674 148.749 34.714 148.819Z" fill="white"/>
<path d="M52.0544 143.888C51.2044 143.308 50.2744 142.868 49.2444 142.728C48.0544 142.568 46.8544 142.428 45.6644 142.378C43.9044 142.298 42.1344 142.298 40.3744 142.238C39.5744 142.208 38.7744 142.088 38.0444 141.728C37.2744 141.348 36.9744 140.728 37.1044 139.908C37.2144 139.208 37.6144 138.698 38.1644 138.298C38.7944 137.848 39.5044 137.578 40.2544 137.418C42.5644 136.918 44.8744 136.958 47.1744 137.478C48.8244 137.848 50.3244 138.528 51.4644 139.848C51.5144 139.898 51.5944 139.918 51.7244 139.988C52.3444 138.758 52.9444 137.548 53.5744 136.288C52.9344 135.988 52.3444 135.698 51.7544 135.418C48.0144 133.618 44.0844 133.218 40.0344 133.968C38.4644 134.258 36.9744 134.778 35.6444 135.698C33.6544 137.068 32.7544 138.968 32.9844 141.378C33.1444 143.128 33.9844 144.458 35.6044 145.198C36.2144 145.478 36.8744 145.708 37.5344 145.838C39.3444 146.198 41.1844 146.288 43.0344 146.328C44.0944 146.348 45.1544 146.378 46.2144 146.458C47.0944 146.518 47.9644 146.668 48.7744 147.058C49.5944 147.448 50.0344 148.108 50.0244 149.018C50.0244 149.748 49.6644 150.318 49.1044 150.768C48.4644 151.288 47.7244 151.578 46.9344 151.768C44.9044 152.258 42.8444 152.298 40.7844 152.058C39.6244 151.928 38.4944 151.648 37.4344 151.158C36.4144 150.688 35.2744 149.858 34.7244 148.828C34.6744 148.908 34.6344 148.958 34.6144 149.008C33.9944 150.288 33.3744 151.568 32.7344 152.908C33.6344 153.588 34.5944 154.028 35.5944 154.378C39.3044 155.678 43.1144 155.918 46.9744 155.298C48.5644 155.048 50.0844 154.538 51.4644 153.668C53.5544 152.328 54.5944 150.458 54.3644 147.938C54.2144 146.248 53.5044 144.868 52.0744 143.898L52.0544 143.888Z" fill="white"/>
<path d="M81.4337 155.179C80.3637 154.069 80.2837 152.669 80.2537 151.249C80.2537 151.109 80.2537 150.969 80.2537 150.829C80.2537 146.679 80.2537 142.529 80.2537 138.379C80.2537 137.819 80.2837 137.259 80.3237 136.699C80.4037 135.789 80.6537 134.929 81.2837 134.219C81.3337 134.169 81.3537 134.089 81.3937 134.019C78.4237 134.019 78.4237 134.049 74.9537 134.049C74.9537 134.089 74.9537 134.139 74.9737 134.159C75.8337 135.009 76.0437 136.109 76.0637 137.249C76.0937 138.789 76.0837 140.339 76.0937 141.879C76.0937 141.989 76.0537 142.109 76.0237 142.239H62.9237C62.8937 142.149 62.8637 142.089 62.8637 142.039C62.8637 140.259 62.8637 138.469 62.9137 136.689C62.9437 135.779 63.2237 134.919 63.8537 134.209C63.9137 134.149 63.9237 134.049 63.9637 133.949C61.1237 133.949 60.7537 134.019 57.5137 134.019C57.5537 134.089 57.5837 134.169 57.6337 134.219C58.2037 134.759 58.4437 135.459 58.5537 136.199C58.6337 136.769 58.6737 137.359 58.6737 137.939C58.6737 142.349 58.6737 146.759 58.6737 151.169C58.6737 151.689 58.6437 152.209 58.5837 152.729C58.4837 153.559 58.2637 154.339 57.6237 154.939C57.5637 154.989 57.5537 155.099 57.5237 155.189H63.9937C63.9337 155.069 63.8837 154.969 63.8137 154.879C63.3837 154.379 63.1237 153.789 63.0237 153.149C62.9337 152.559 62.8737 151.959 62.8637 151.359C62.8437 149.739 62.8637 148.109 62.8637 146.489C62.8637 146.299 62.8837 146.099 62.9037 145.879H76.0837C76.0937 146.129 76.1137 146.349 76.1137 146.569C76.1137 147.629 76.1137 148.699 76.1137 149.759C76.1137 150.619 76.1137 151.479 76.0637 152.349C76.0137 153.329 75.8037 154.259 75.0637 154.979C75.0037 155.039 74.9937 155.149 74.9537 155.239L81.4437 155.179H81.4337Z" fill="white"/>
<path d="M102.745 134.758C98.9346 133.148 95.0446 133.158 91.2146 134.698C88.2746 135.878 86.2446 138.018 85.2246 141.048C84.7946 142.338 84.6346 143.668 84.6846 145.018C84.8646 149.238 86.7946 152.338 90.5946 154.218C92.5646 155.198 94.6946 155.568 97.3446 155.578C98.2346 155.588 99.5646 155.428 100.865 155.088C105.775 153.808 108.695 150.208 109.125 145.808C109.575 141.248 107.475 136.758 102.735 134.758H102.745ZM104.255 148.128C103.115 150.348 101.225 151.528 98.8246 151.978C98.1946 152.098 97.5546 152.118 96.9146 152.188C95.5046 152.158 94.1546 151.908 92.8946 151.288C90.4846 150.108 89.1646 148.168 88.8446 145.508C88.7246 144.498 88.7846 143.508 89.0446 142.528C89.6446 140.268 91.0346 138.658 93.1946 137.768C95.6546 136.758 98.1746 136.738 100.625 137.768C103.425 138.948 104.855 141.148 105.025 144.168C105.105 145.548 104.885 146.888 104.245 148.138L104.255 148.128Z" fill="white"/>
<path d="M134.595 155.346C134.715 155.326 134.835 155.266 135.055 155.206C131.095 151.806 127.685 147.996 124.145 144.266C124.525 143.776 124.865 143.346 125.195 142.926C125.545 142.486 125.885 142.046 126.235 141.596C126.565 141.166 126.905 140.746 127.235 140.316C127.565 139.886 127.895 139.456 128.235 139.036C128.585 138.596 128.945 138.166 129.305 137.736C129.655 137.316 130.005 136.906 130.355 136.496C130.715 136.066 131.085 135.646 131.445 135.216C131.775 134.816 132.165 134.446 132.505 133.906H126.035C126.475 134.786 126.175 135.506 125.755 136.186C125.445 136.676 125.115 137.156 124.755 137.606C122.935 139.896 121.105 142.176 119.275 144.466C119.145 144.636 119.015 144.816 118.885 144.986C118.995 145.126 119.085 145.226 119.175 145.336C120.935 147.286 122.685 149.236 124.455 151.176C125.045 151.826 125.675 152.456 126.315 153.046C128.685 155.226 131.455 155.956 134.605 155.346H134.595Z" fill="white"/>
<path d="M118.494 155.208C118.434 155.098 118.394 154.998 118.324 154.908C117.854 154.358 117.604 153.708 117.514 152.998C117.444 152.468 117.394 151.918 117.394 151.378C117.394 146.868 117.394 142.358 117.394 137.848C117.394 137.668 117.394 137.488 117.394 137.308C117.454 136.188 117.634 135.108 118.424 134.238C118.474 134.188 118.474 134.098 118.504 133.988H112.014C112.114 134.148 112.154 134.258 112.234 134.338C112.734 134.828 112.964 135.438 113.064 136.098C113.154 136.668 113.204 137.258 113.204 137.828C113.214 142.358 113.214 146.888 113.204 151.418C113.204 151.958 113.154 152.498 113.084 153.038C112.984 153.738 112.754 154.398 112.224 154.918C112.154 154.988 112.114 155.108 112.054 155.208H118.504H118.494Z" fill="white"/>
<path d="M13.873 177.988C13.123 177.988 12.453 177.878 11.833 177.648C11.223 177.428 10.693 177.088 10.253 176.648C9.81304 176.208 9.47305 175.658 9.23305 175.008C8.99305 174.358 8.87305 173.608 8.87305 172.758V165.758H10.233V172.668C10.233 173.978 10.553 174.978 11.203 175.678C11.853 176.378 12.753 176.728 13.913 176.728C15.073 176.728 15.903 176.398 16.563 175.728C17.213 175.068 17.543 174.068 17.543 172.758V165.758H18.903V172.658C18.903 173.538 18.783 174.318 18.543 174.978C18.303 175.638 17.963 176.198 17.523 176.648C17.083 177.098 16.553 177.428 15.943 177.658C15.333 177.878 14.643 177.998 13.893 177.998L13.873 177.988Z" fill="white"/>
<path d="M27.1621 165.77H28.4321L36.0121 175.42V165.77H37.3321V177.81H36.2521L28.4821 167.94V177.81H27.1621V165.77Z" fill="white"/>
<path d="M45.9238 165.77H47.2838V177.81H45.9238V165.77Z" fill="white"/>
<path d="M54.4827 165.77H55.9927L60.2727 176.14L64.5727 165.77H66.0327L60.8527 177.89H59.6527L54.4727 165.77H54.4827Z" fill="white"/>
<path d="M72.7832 165.768H81.4832V166.988H74.1432V171.128H80.7132V172.348H74.1432V176.578H81.5732V177.798H72.7832V165.758V165.768Z" fill="white"/>
<path d="M89.7031 165.768H94.8831C95.6331 165.768 96.2931 165.878 96.8731 166.088C97.4531 166.298 97.9331 166.598 98.3131 166.978C98.6131 167.278 98.8431 167.628 99.0031 168.028C99.1631 168.428 99.2431 168.868 99.2431 169.348V169.378C99.2431 169.878 99.1631 170.328 99.0031 170.728C98.8431 171.128 98.6131 171.468 98.3231 171.758C98.0331 172.048 97.6831 172.288 97.2831 172.478C96.8831 172.668 96.4431 172.798 95.9731 172.878L99.6731 177.798H98.0031L94.5131 173.118H91.0731V177.798H89.7131V165.758L89.7031 165.768ZM94.7631 171.908C95.2131 171.908 95.6231 171.848 96.0031 171.738C96.3831 171.628 96.7131 171.458 96.9831 171.248C97.2631 171.038 97.4731 170.778 97.6331 170.478C97.7931 170.178 97.8631 169.828 97.8631 169.438V169.408C97.8631 168.658 97.5931 168.078 97.0531 167.658C96.5131 167.238 95.7531 167.028 94.7731 167.028H91.0531V171.908H94.7631Z" fill="white"/>
<path d="M111.332 177.968C110.372 177.968 109.492 177.808 108.692 177.498C107.892 177.178 107.132 176.698 106.412 176.048L107.252 175.048C107.882 175.618 108.522 176.048 109.162 176.328C109.802 176.608 110.542 176.748 111.382 176.748C112.222 176.748 112.842 176.558 113.332 176.168C113.822 175.788 114.062 175.298 114.062 174.698V174.668C114.062 174.388 114.012 174.148 113.922 173.918C113.832 173.698 113.672 173.488 113.442 173.308C113.212 173.128 112.892 172.958 112.482 172.808C112.072 172.658 111.552 172.518 110.922 172.378C110.232 172.228 109.632 172.058 109.122 171.858C108.612 171.668 108.192 171.428 107.852 171.148C107.512 170.868 107.272 170.548 107.112 170.188C106.952 169.818 106.872 169.388 106.872 168.898V168.868C106.872 168.398 106.972 167.958 107.162 167.558C107.352 167.158 107.632 166.808 107.992 166.518C108.352 166.228 108.762 165.998 109.252 165.828C109.732 165.658 110.262 165.578 110.832 165.578C111.712 165.578 112.482 165.698 113.142 165.948C113.802 166.198 114.442 166.568 115.062 167.058L114.272 168.108C113.712 167.648 113.142 167.318 112.582 167.108C112.022 166.898 111.422 166.798 110.802 166.798C110.012 166.798 109.382 166.988 108.932 167.358C108.472 167.728 108.242 168.188 108.242 168.738V168.768C108.242 169.058 108.292 169.308 108.382 169.538C108.472 169.758 108.642 169.968 108.882 170.158C109.122 170.348 109.452 170.518 109.882 170.678C110.302 170.828 110.852 170.978 111.512 171.118C112.852 171.418 113.842 171.828 114.482 172.358C115.122 172.888 115.432 173.608 115.432 174.528V174.558C115.432 175.078 115.332 175.538 115.122 175.958C114.922 176.378 114.642 176.738 114.282 177.028C113.922 177.328 113.492 177.558 112.992 177.718C112.492 177.878 111.942 177.958 111.342 177.958L111.332 177.968Z" fill="white"/>
<path d="M123.373 165.77H124.733V177.81H123.373V165.77Z" fill="white"/>
<path d="M135.464 167.018H131.424V165.758H140.864V167.018H136.824V177.798H135.464V167.018Z" fill="white"/>
<path d="M150.523 173.04L145.523 165.77H147.173L151.223 171.79L155.303 165.77H156.883L151.883 173.03V177.81H150.523V173.05V173.04Z" fill="white"/>
<path d="M380.7 19V160.7C359.1 150.9 335.1 145.5 309.9 145.5C284.7 145.5 260.6 150.9 239 160.7V19H380.7ZM382.7 17H380.7H239H237V19V160.7V163.8L239.8 162.5C261.9 152.6 285.4 147.5 309.9 147.5C334.3 147.5 357.8 152.6 379.9 162.5L382.7 163.8V160.7V19V17Z" fill="white"/>
<path d="M255.899 62.2039C249.199 62.2039 248.699 69.0039 248.699 69.0039H245.499V59.0039H270.299C270.299 59.0039 270.499 66.7039 263.199 74.9039C263.199 74.9039 256.199 83.0039 255.999 86.6039H259.999C265.799 86.6039 266.399 79.8039 266.399 79.8039H269.699V89.8039H244.399C244.399 89.8039 243.499 82.2039 252.299 73.0039C252.299 73.0039 257.699 67.0039 258.999 62.2039H255.899Z" fill="white"/>
<path d="M319.099 89.8023V86.5023H318.299C316.899 86.5023 315.799 85.4023 315.799 84.0023V64.7023C315.799 63.3023 316.899 62.2023 318.299 62.2023H319.099V58.9023H302.699V62.2023H303.499C304.899 62.2023 305.999 63.3023 305.999 64.7023V84.1023C305.999 85.5023 304.899 86.6023 303.499 86.6023H302.699V89.9023H319.099V89.8023Z" fill="white"/>
<path d="M299.3 89.8039V79.8039H296C296 79.8039 295.4 86.6039 289.6 86.6039H286.3V76.1039H287.5C288.9 76.1039 290 77.2039 290 78.6039V79.8039H293.3V69.0039H290V70.2039C290 71.6039 288.9 72.7039 287.5 72.7039H286.3V62.2039H289.6C295.4 62.2039 296 69.0039 296 69.0039H299.3V59.0039H273.1V62.3039H273.9C275.3 62.3039 276.4 63.4039 276.4 64.8039V84.1039C276.4 85.5039 275.3 86.6039 273.9 86.6039H273.1V89.9039L299.3 89.8039Z" fill="white"/>
<path d="M336.4 62.2039C343.1 62.2039 343.6 69.0039 343.6 69.0039H346.8V59.0039H323.1C323.1 59.0039 319.3 63.9039 329.2 74.9039C329.2 74.9039 336.1 83.0039 336.3 86.6039H332.3C326.5 86.6039 325.9 79.8039 325.9 79.8039H322.6V89.8039H346.5C346.5 89.8039 350.8 85.1039 340.1 73.0039C340.1 73.0039 334.5 67.2039 333.4 62.2039H336.4Z" fill="white"/>
<path d="M364.099 62.2039C370.699 62.2039 371.299 69.0039 371.299 69.0039H374.499V59.0039H350.799C350.799 59.0039 346.999 63.9039 356.899 74.9039C356.899 74.9039 363.799 83.0039 363.999 86.6039H359.999C354.199 86.6039 353.599 79.8039 353.599 79.8039H350.299V89.8039H374.199C374.199 89.8039 378.499 85.1039 367.799 73.0039C367.799 73.0039 362.199 67.2039 361.099 62.2039H364.099Z" fill="white"/>
</svg>
