<svg width="390" height="180" viewBox="0 0 390 180" fill="none" xmlns="http://www.w3.org/2000/svg">
<path d="M34.9844 95.8086C35.1044 96.0786 35.2344 96.3386 35.3644 96.6086C35.5744 96.8086 35.7944 97.0086 36.0144 97.1986C35.6644 96.7386 35.3244 96.2786 34.9844 95.8086Z" fill="#C4122F"/>
<path d="M35.1856 27.2405C35.0956 27.3305 35.0056 27.4205 34.9156 27.5005C34.8656 27.6105 34.8156 27.7105 34.7656 27.8205C34.9056 27.6205 35.0456 27.4305 35.1856 27.2305V27.2405Z" fill="#C4122F"/>
<path d="M101.125 5.9575C101.125 5.9575 101.105 5.9475 101.095 5.9375C101.085 5.9375 101.065 5.9375 101.055 5.9375C101.075 5.9375 101.105 5.9575 101.125 5.9575Z" fill="#C4122F"/>
<path d="M112.615 107.801C107.875 113.661 105.755 114.671 101.275 117.291C112.345 113.451 123.285 105.191 130.245 95.9609C125.895 99.9009 119.975 103.551 114.315 105.151C114.085 105.501 112.865 107.471 112.605 107.791L112.615 107.801Z" fill="#C4122F"/>
<path d="M82.9044 115.379C82.5644 115.509 82.2245 115.639 81.8845 115.759C76.4645 117.689 70.1545 118.319 64.8145 117.719C69.4745 119.199 75.1445 120.049 80.2345 120.269C87.2345 120.579 94.9545 119.369 101.274 117.289C99.8245 117.459 97.4045 117.769 95.9145 117.769C91.3445 117.769 86.9644 116.929 82.9044 115.389V115.379Z" fill="#C4122F"/>
<path d="M50.8956 105.349C50.6856 105.289 50.4856 105.229 50.2756 105.169C44.8256 103.519 40.0156 100.749 36.0156 97.1992C42.8656 106.189 52.8056 113.249 63.7256 117.099C62.7856 116.539 61.3256 115.849 60.4256 115.199C56.5656 112.439 53.3756 109.079 50.8956 105.349Z" fill="#C4122F"/>
<path d="M31.5152 78.5809C31.3952 78.4309 31.2852 78.2909 31.1652 78.1409C27.5052 73.3709 25.1452 66.9809 24.0352 61.4609C24.1952 73.8309 28.2152 86.3709 34.9852 95.8209C34.4452 94.6309 33.9552 93.4109 33.5252 92.1409C31.9952 87.6409 31.3652 83.0609 31.5152 78.5809Z" fill="#C4122F"/>
<path d="M31.4352 45.0181C31.4352 44.9281 31.4352 44.8481 31.4252 44.7581C31.2252 38.7281 32.4352 32.9781 34.7652 27.8281C28.4652 36.7381 24.5652 47.4981 24.0752 59.2181C24.0552 59.7481 24.0352 60.9281 24.0352 61.4581C24.2652 60.3981 24.5252 58.6981 24.8552 57.6381C26.2852 52.9181 28.5552 48.6681 31.4452 45.0281L31.4352 45.0181Z" fill="#C4122F"/>
<path d="M50.8653 18.4292C50.8953 18.3792 50.9253 18.3292 50.9653 18.2792C54.4053 13.1192 59.6153 8.53922 64.6753 5.69922C53.4153 9.05922 42.2853 17.4692 35.1953 27.2492C36.1453 26.3592 37.1453 25.4992 38.1953 24.6892C42.0853 21.6992 46.4253 19.7192 50.8653 18.4392V18.4292Z" fill="#C4122F"/>
<path d="M83.016 7.95907C88.986 5.81907 95.146 5.11907 101.046 5.92907C96.016 4.27907 90.686 3.27907 85.136 3.04907C78.266 2.75907 70.886 3.76907 64.666 5.68907C65.606 5.58907 67.296 5.41907 68.256 5.38907C73.446 5.21907 78.436 6.22907 83.016 7.95907Z" fill="#C4122F"/>
<path d="M114.195 17.9109C120.025 19.5209 125.815 23.3809 130.045 27.1609C122.965 17.8609 112.515 9.73094 101.115 5.96094C102.015 6.46094 102.905 7.00094 103.785 7.59094C108.015 10.4209 111.505 13.9409 114.195 17.9209V17.9109Z" fill="#C4122F"/>
<path d="M133.835 45.1902C137.485 49.8502 140.165 55.9402 141.345 61.7902C141.255 49.2902 136.875 36.6902 130.045 27.1602C130.465 28.0502 131.195 29.3302 131.545 30.2602C133.405 35.1802 134.025 40.2402 133.835 45.1902Z" fill="#C4122F"/>
<path d="M133.786 78.0991C133.786 78.0991 133.886 78.5891 133.896 78.6291C133.926 78.7691 133.936 78.9191 133.946 79.0591C133.986 79.4391 134.016 79.8191 134.016 80.1991C134.016 80.7591 134.006 81.3191 133.966 81.8791C133.926 82.3991 133.906 82.9591 133.806 83.4691C133.586 85.2791 133.236 87.0791 132.766 88.8491C132.316 90.5791 131.756 92.2791 131.096 93.9391C130.826 94.6191 130.546 95.2891 130.246 95.9491C136.496 87.0591 140.806 75.7691 141.296 64.1091C141.316 63.5791 141.336 62.3091 141.346 61.7891C141.206 62.4391 141.046 63.8391 140.876 64.4891C139.496 69.6591 136.906 74.1491 133.796 78.0991H133.786Z" fill="#C4122F"/>
<path d="M97.1448 106.01C93.4548 109.88 88.1448 113.3 82.8848 115.39C93.9048 115.2 105.835 111.12 114.325 105.16C109.135 106.5 102.705 107.02 97.1548 106.01H97.1448Z" fill="#C4122F"/>
<path d="M68.4245 105.988C63.1045 106.998 56.4445 106.758 50.8945 105.348C59.0045 111.028 69.8145 114.818 80.4445 115.268C81.0045 115.288 82.3245 115.378 82.8845 115.378C77.6545 113.348 72.2445 109.968 68.4245 105.988Z" fill="#C4122F"/>
<path d="M31.5156 78.5781C35.0056 88.7281 42.4656 98.9581 50.8956 105.348C47.9856 100.698 45.7256 94.4181 45.0056 89.0681C40.1456 86.7281 35.1356 82.9981 31.5156 78.5781Z" fill="#C4122F"/>
<path d="M31.4242 45.0703C30.0642 49.4403 29.2842 54.6403 29.0842 59.4203C28.8142 65.8703 29.6642 72.7603 31.5142 78.5703C31.8042 72.8803 33.4142 66.7103 36.0642 61.7803C33.4242 56.9603 31.7542 50.9003 31.4242 45.0703Z" fill="#C4122F"/>
<path d="M44.9455 34.5097C45.6555 29.0997 47.7355 23.3097 50.8655 18.4297C42.2755 24.8597 34.9455 34.6397 31.4355 45.0697C34.9955 40.7297 39.9655 36.9097 44.9455 34.5097Z" fill="#C4122F"/>
<path d="M36.0745 61.7809C36.1345 61.8909 36.1945 61.9909 36.2445 62.1009C36.2445 61.8909 36.2445 61.6709 36.2445 61.4609C36.1845 61.5709 36.1245 61.6809 36.0645 61.7909L36.0745 61.7809Z" fill="#C4122F"/>
<path d="M82.9857 7.95922C82.5557 7.93922 82.1157 7.95922 81.6857 7.96922C81.2557 7.97922 80.8157 8.00922 80.3757 8.02922C79.5057 8.07922 78.6357 8.13923 77.7657 8.22923C76.8957 8.31923 76.0357 8.41922 75.1757 8.54922C74.3157 8.67922 73.4657 8.81922 72.6157 8.98922C71.7657 9.15922 70.9257 9.33922 70.0857 9.54922C69.2457 9.74922 68.4157 9.97922 67.5957 10.2192C66.7757 10.4592 65.9557 10.7192 65.1457 10.9992C64.3357 11.2792 63.5457 11.5692 62.7457 11.8892C61.9557 12.1992 61.1757 12.5292 60.4057 12.8792C59.6357 13.2292 58.8757 13.5892 58.1257 13.9792C57.3757 14.3692 56.6457 14.7592 55.9157 15.1692C55.1857 15.5792 54.4757 16.0092 53.7757 16.4592C53.0757 16.9092 52.3957 17.3592 51.7157 17.8392C51.5757 17.9392 50.9857 18.3192 50.8457 18.4192C56.4157 16.8892 62.6557 16.3892 68.2457 17.4092C68.2757 17.4092 68.4257 17.2192 68.4457 17.1992C68.5157 17.1292 68.5857 17.0492 68.6557 16.9792C68.7957 16.8292 68.9457 16.6892 69.0857 16.5492C69.3757 16.2592 69.6757 15.9792 69.9757 15.6992C70.5757 15.1392 71.1957 14.5992 71.8357 14.0892C72.4757 13.5792 73.1357 13.0692 73.8157 12.5892C74.4957 12.1092 75.1957 11.6492 75.9057 11.2092C76.6257 10.7692 77.3557 10.3492 78.1057 9.95922C78.9557 9.50922 79.8357 9.09922 80.7157 8.70922C81.0757 8.54922 81.4357 8.38922 81.8057 8.24922C81.8057 8.24922 82.1157 8.08922 82.9657 7.94922L82.9857 7.95922Z" fill="#C4122F"/>
<path d="M96.9654 17.3409C102.245 16.3609 108.655 16.4909 114.195 17.9109C106.075 12.2109 95.5754 8.50094 84.9354 8.06094C84.4554 8.04094 83.4954 7.97094 83.0254 7.96094C86.3154 8.91094 93.1754 13.3809 96.9654 17.3409Z" fill="#C4122F"/>
<path d="M68.2653 17.418C68.2653 17.418 68.2153 17.468 68.1953 17.498C68.2553 17.478 68.3153 17.458 68.3753 17.438C68.3353 17.438 68.3053 17.428 68.2753 17.418H68.2653Z" fill="#C4122F"/>
<path d="M133.835 45.1902C130.325 34.6502 122.985 24.4302 114.195 17.9102C117.295 22.7002 119.675 28.7202 120.415 34.2902C125.645 36.7802 130.335 40.8502 133.835 45.1802V45.1902Z" fill="#C4122F"/>
<path d="M120.444 89.0598C119.754 94.4598 117.404 100.29 114.324 105.15C122.914 98.7198 130.274 88.5298 133.794 78.0898C130.214 82.4498 125.474 86.6598 120.454 89.0598H120.444Z" fill="#C4122F"/>
<path d="M133.785 78.0975C135.115 73.7875 136.095 68.6275 136.295 63.9075C136.555 57.5975 135.605 50.8975 133.835 45.1875C133.525 50.7875 131.895 56.8275 129.285 61.7075C131.845 66.4575 133.455 72.3975 133.785 78.0975Z" fill="#C4122F"/>
<path d="M120.445 89.0592C120.445 89.0592 120.455 88.9892 120.465 88.9492C120.425 88.9992 120.385 89.0592 120.355 89.1092C120.385 89.0892 120.425 89.0792 120.455 89.0592H120.445Z" fill="#C4122F"/>
<path d="M120.426 34.38C120.426 34.38 120.426 34.32 120.416 34.29C120.386 34.28 120.366 34.26 120.336 34.25C120.366 34.29 120.396 34.33 120.426 34.38Z" fill="#C4122F"/>
<path d="M82.6055 100.129C78.4355 102.929 73.3955 104.989 68.4355 105.989C72.2455 107.179 76.6555 107.989 80.8255 108.159C86.3355 108.389 92.1755 107.559 97.1555 105.999C96.2555 105.959 94.9755 105.739 94.1355 105.509C89.9255 104.389 86.0355 102.429 82.6055 100.129Z" fill="#C4122F"/>
<path d="M45.0061 89.0703C50.6261 96.5603 59.2961 102.98 68.4261 106C64.9761 102.33 62.0061 97.7703 60.2161 92.9603C55.1861 92.7903 49.6161 91.1803 44.9961 89.0703H45.0061Z" fill="#C4122F"/>
<path d="M46.0261 73.5077C42.0661 70.3977 38.7261 66.5277 36.2461 62.0977C36.3261 71.8777 39.7161 81.5677 45.0061 89.0677C44.4361 84.0877 44.5961 78.4177 46.0261 73.5077Z" fill="#C4122F"/>
<path d="M46.0144 49.9278C44.6044 45.0578 44.3444 39.5878 44.9344 34.5078C39.9344 41.5678 36.6644 50.4478 36.2744 59.7378C36.2544 60.3078 36.2444 60.8778 36.2344 61.4478C38.6644 57.0378 41.9744 53.1078 46.0044 49.9178L46.0144 49.9278Z" fill="#C4122F"/>
<path d="M46.0254 73.5097C46.0254 73.5097 46.0654 73.5397 46.0854 73.5597C46.0754 73.5197 46.0554 73.4797 46.0454 73.4297C46.0454 73.4597 46.0354 73.4797 46.0254 73.5097Z" fill="#C4122F"/>
<path d="M60.1155 30.51C61.8955 25.7 64.6355 21.26 68.1855 17.5C58.9555 20.55 50.6155 26.81 44.9355 34.51C49.5055 32.39 54.8655 30.76 60.0155 30.58C60.0455 30.56 60.0755 30.53 60.1055 30.51H60.1155Z" fill="#C4122F"/>
<path d="M46.0156 49.9284C46.0156 49.9284 46.0156 49.9584 46.0256 49.9684C46.0256 49.9484 46.0356 49.9284 46.0456 49.8984C46.0356 49.8984 46.0256 49.9184 46.0156 49.9284Z" fill="#C4122F"/>
<path d="M96.965 17.3398C93.195 16.1698 88.845 15.3798 84.715 15.2098C79.015 14.9698 73.505 15.7698 68.375 17.4398C73.385 18.3698 78.215 20.2998 82.545 23.1798C86.765 20.2998 91.915 18.3498 96.965 17.3398Z" fill="#C4122F"/>
<path d="M113.805 31.8598C116.095 32.4698 118.275 33.2798 120.335 34.2598C114.705 26.5498 106.265 20.4298 96.9648 17.3398C100.435 21.0698 103.645 25.6798 105.405 30.5898C108.185 30.6998 111.005 31.1098 113.805 31.8598Z" fill="#C4122F"/>
<path d="M82.5356 23.1797C82.5356 23.1797 82.5256 23.1897 82.5156 23.1997C82.5356 23.1997 82.5456 23.1997 82.5656 23.1997C82.5656 23.1997 82.5456 23.1897 82.5456 23.1797H82.5356Z" fill="#C4122F"/>
<path d="M97.1445 106.007C106.325 102.917 114.705 96.8272 120.345 89.1172C115.745 91.2972 110.705 92.5672 105.505 92.7672C103.775 97.5772 100.645 102.237 97.1545 106.017L97.1445 106.007Z" fill="#C4122F"/>
<path d="M119.215 73.7887C120.605 78.6887 121.095 83.8587 120.455 88.9587C125.635 81.8087 128.845 73.1187 129.245 63.6387C129.265 63.1187 129.275 62.2387 129.285 61.7188C126.815 66.2087 123.355 70.5687 119.215 73.7987V73.7887Z" fill="#C4122F"/>
<path d="M105.506 92.7577C105.526 92.7077 105.546 92.6577 105.566 92.5977C105.496 92.6477 105.416 92.7077 105.346 92.7577C105.396 92.7577 105.456 92.7577 105.506 92.7577Z" fill="#C4122F"/>
<path d="M119.266 49.6789C123.326 52.8389 126.776 57.1789 129.286 61.7089C129.216 51.6889 125.956 41.9789 120.436 34.3789C121.096 39.4389 120.686 44.6589 119.266 49.6789Z" fill="#C4122F"/>
<path d="M105.415 30.6198C105.415 30.6198 105.415 30.5998 105.405 30.5898C105.395 30.5898 105.385 30.5898 105.375 30.5898C105.385 30.5998 105.405 30.6098 105.425 30.6198H105.415Z" fill="#C4122F"/>
<path d="M73.2246 90.8789C69.0546 92.2289 64.5246 93.0689 60.2246 92.9489C66.0846 97.1189 73.3546 99.7789 81.0846 100.099C81.5246 100.119 82.1646 100.129 82.6046 100.129C79.0146 97.6689 75.7446 94.3189 73.2246 90.8789Z" fill="#C4122F"/>
<path d="M46.0957 73.5586C48.6257 81.3286 53.7157 88.2086 60.2257 92.9486C58.7457 88.8886 57.7957 84.3386 57.7957 79.7686C53.5257 78.3886 49.5757 76.2686 46.0957 73.5586Z" fill="#C4122F"/>
<path d="M51.8145 61.7609C49.1945 58.1609 47.2545 54.1609 46.0245 49.9609C45.0045 53.1609 44.3945 56.5409 44.2445 60.0509C44.0445 64.7209 44.6945 69.2209 46.0445 73.4309C47.2245 69.4409 49.0745 65.5809 51.6345 62.0009C51.6945 61.9209 51.7545 61.8409 51.8145 61.7609Z" fill="#C4122F"/>
<path d="M60.1154 30.5078C60.1154 30.5078 60.0554 30.5578 60.0254 30.5778C60.0454 30.5778 60.0754 30.5778 60.0954 30.5778C60.0954 30.5578 60.1154 30.5378 60.1154 30.5078Z" fill="#C4122F"/>
<path d="M57.8347 43.7481C57.8347 39.2481 58.5647 34.7281 60.0947 30.5781C60.0747 30.5781 60.0447 30.5781 60.0247 30.5781C53.5447 35.3181 48.5747 42.0381 46.0547 49.8981C46.0547 49.8981 52.1047 45.5381 57.8347 43.7481Z" fill="#C4122F"/>
<path d="M73.1157 32.5575C73.3457 32.6275 72.8957 32.4875 73.1157 32.5575C75.7257 28.9275 78.8957 25.6675 82.5157 23.1875C74.1857 23.2175 66.4357 25.9175 60.1157 30.5075C60.1157 30.5275 60.0957 30.5475 60.0957 30.5775C64.1557 30.4475 69.0157 31.3275 73.1157 32.5675V32.5575Z" fill="#C4122F"/>
<path d="M91.6345 31.6992C91.8045 31.9192 91.9645 32.1292 92.1245 32.3492C92.1745 32.3692 92.2245 32.3792 92.2845 32.3992C96.4445 31.0592 100.864 30.4192 105.374 30.5892C99.4345 26.2492 92.1945 23.5592 84.3045 23.2292C83.7245 23.2092 83.1445 23.1992 82.5645 23.1992C85.9445 25.4592 89.0245 28.2992 91.6445 31.7092L91.6345 31.6992Z" fill="#C4122F"/>
<path d="M94.2055 91.478C93.5655 91.308 92.9355 91.118 92.3155 90.918C89.7055 94.548 86.2255 97.648 82.6055 100.128C90.9655 100.088 99.0155 97.368 105.345 92.758C101.675 92.878 97.9355 92.478 94.2055 91.478Z" fill="#C4122F"/>
<path d="M107.685 79.8791C107.685 84.2391 106.985 88.5791 105.555 92.5991C111.815 87.9691 116.675 81.3691 119.215 73.7891C116.295 76.0391 112.955 78.0191 109.325 79.3791C108.805 79.5791 108.205 79.6991 107.675 79.8691L107.685 79.8791Z" fill="#C4122F"/>
<path d="M92.3144 90.9294C92.3144 90.9294 92.3444 90.8794 92.3644 90.8594C92.3244 90.8694 92.2744 90.8894 92.2344 90.8994C92.2644 90.8994 92.2844 90.9194 92.3144 90.9294Z" fill="#C4122F"/>
<path d="M113.655 61.4397C113.655 61.6397 113.655 61.8497 113.655 62.0497C116.195 65.6097 118.035 69.6797 119.215 73.7897C120.285 70.5097 120.975 66.8897 121.125 63.2697C121.325 58.5597 120.635 53.9197 119.255 49.6797C118.195 53.3797 116.585 57.0797 114.325 60.4497C114.105 60.7797 113.875 61.1097 113.645 61.4297L113.655 61.4397Z" fill="#C4122F"/>
<path d="M107.646 43.3972C107.646 43.3972 107.696 43.4672 107.726 43.5072C111.926 44.8772 115.846 47.0372 119.266 49.6872C116.736 42.0272 111.826 35.3172 105.416 30.6172C106.716 34.2572 107.496 38.1572 107.626 42.2272C107.636 42.6172 107.646 43.0072 107.646 43.3972Z" fill="#C4122F"/>
<path d="M57.7949 79.7695C61.3849 84.5895 67.4149 88.8295 73.2249 90.8795C71.2849 88.1095 69.2449 84.7795 68.0949 81.5895C64.7249 81.4695 60.8949 80.7195 57.7949 79.7795V79.7695Z" fill="#C4122F"/>
<path d="M51.8145 61.7578C51.9645 67.9478 54.4545 74.9778 57.7845 79.7678C57.8345 76.3778 58.3345 72.4978 59.2145 69.3778C56.5645 67.3278 53.7645 64.3178 51.8145 61.7578Z" fill="#C4122F"/>
<path d="M59.205 54.12C58.265 50.82 57.875 47.05 57.835 43.75C54.635 48.36 52.075 55.63 51.815 61.65C51.805 61.9 51.815 61.51 51.815 61.76C53.855 59.09 56.665 56.1 59.205 54.12Z" fill="#C4122F"/>
<path d="M59.2246 69.3895C59.2246 69.3895 59.2846 69.4395 59.3146 69.4595C59.2946 69.3995 59.2746 69.3295 59.2546 69.2695C59.2446 69.3095 59.2346 69.3495 59.2246 69.3895Z" fill="#C4122F"/>
<path d="M73.1159 32.5586C67.2159 34.6086 61.4859 38.7786 57.8359 43.7386C61.1259 42.7086 64.8659 41.8886 68.1659 41.7586C69.3459 38.4586 71.1659 35.3086 73.1159 32.5586Z" fill="#C4122F"/>
<path d="M59.2053 54.1198C59.2053 54.1198 59.2053 54.1498 59.2153 54.1698C59.2153 54.1398 59.2353 54.1198 59.2353 54.0898C59.2253 54.0898 59.2153 54.1098 59.1953 54.1198H59.2053Z" fill="#C4122F"/>
<path d="M92.185 32.4277C92.185 32.4277 92.245 32.4077 92.285 32.3977C92.235 32.3777 92.185 32.3677 92.125 32.3477C92.145 32.3777 92.165 32.3977 92.185 32.4277Z" fill="#C4122F"/>
<path d="M82.6855 37.0301C82.6855 37.0301 82.7155 37.0301 82.7255 37.0301C85.6455 35.0701 88.8255 33.5201 92.1855 32.4301C92.1655 32.4001 92.1455 32.3801 92.1255 32.3501C89.6255 31.5701 86.9955 31.1001 84.2555 30.9901C80.4355 30.8301 76.5255 31.4401 73.1055 32.5701C76.4555 33.6801 79.7755 35.1601 82.5855 37.0401C82.6155 37.0401 82.6555 37.0401 82.6855 37.0401V37.0301Z" fill="#C4122F"/>
<path d="M73.2248 90.8784C75.7048 91.6484 78.9848 92.1784 81.6948 92.2884C85.3648 92.4384 88.9148 91.9384 92.2248 90.8984C88.8548 89.7984 85.7348 88.2784 82.9048 86.3984C80.0548 88.3484 76.3548 89.7984 73.2148 90.8884L73.2248 90.8784Z" fill="#C4122F"/>
<path d="M68.0945 81.5905C68.0945 81.5905 68.1745 81.5905 68.2145 81.5905C68.1645 81.5505 68.1145 81.5205 68.0645 81.4805C68.0745 81.5205 68.0945 81.5505 68.1045 81.5905H68.0945Z" fill="#C4122F"/>
<path d="M92.3652 90.8589C98.4752 88.8989 103.905 84.9389 107.685 79.8789C104.235 80.9989 100.485 81.6189 97.0152 81.7289C95.8152 85.0089 94.3152 88.1289 92.3652 90.8589Z" fill="#C4122F"/>
<path d="M82.9056 86.3891C82.9056 86.3891 83.0056 86.3191 83.0556 86.2891C82.9556 86.2891 82.8656 86.2891 82.7656 86.2891C82.8156 86.3191 82.8556 86.3591 82.9056 86.3891Z" fill="#C4122F"/>
<path d="M113.656 62.0475C113.656 61.8475 113.656 61.6375 113.656 61.4375C113.586 61.5375 113.506 61.6475 113.436 61.7475C113.506 61.8475 113.586 61.9475 113.656 62.0475Z" fill="#C4122F"/>
<path d="M106.234 69.2378C107.254 72.7278 107.674 76.3978 107.684 79.8778C111.154 75.1378 113.364 69.2278 113.634 62.9278C113.644 62.6378 113.654 62.3478 113.654 62.0578C113.584 61.9578 113.504 61.8578 113.434 61.7578C111.334 64.6378 108.904 67.1378 106.234 69.2578V69.2378Z" fill="#C4122F"/>
<path d="M107.725 43.5084C107.725 43.5084 107.675 43.4384 107.645 43.3984C107.645 43.4284 107.645 43.4484 107.645 43.4784C107.675 43.4784 107.695 43.4984 107.725 43.5084Z" fill="#C4122F"/>
<path d="M106.145 54.1188C106.145 54.1188 106.175 54.1987 106.185 54.2387C108.995 56.4487 111.415 58.9787 113.435 61.7387C113.505 61.6387 113.585 61.5387 113.655 61.4287C113.615 54.7487 111.425 48.5487 107.725 43.4987C107.695 43.4987 107.675 43.4787 107.645 43.4688C107.645 47.1588 107.125 50.7287 106.145 54.1087V54.1188Z" fill="#C4122F"/>
<path d="M106.105 69.3398C106.105 69.3398 106.195 69.2698 106.235 69.2398C106.225 69.1898 106.205 69.1398 106.185 69.0898C106.155 69.1798 106.125 69.2598 106.105 69.3498V69.3398Z" fill="#C4122F"/>
<path d="M97.1555 41.6584C100.806 41.7784 104.326 42.4084 107.646 43.4784C107.646 43.4484 107.646 43.4284 107.646 43.3984C103.856 38.2884 98.5155 34.3784 92.2855 32.3984C92.2555 32.4084 92.2255 32.4184 92.1855 32.4284C94.3055 35.3284 95.9555 38.4384 97.1555 41.6584Z" fill="#C4122F"/>
<path d="M97.1945 41.7502C97.1945 41.7502 97.1745 41.6902 97.1645 41.6602C97.1345 41.6602 97.1045 41.6602 97.0645 41.6602C97.1045 41.6902 97.1545 41.7202 97.1945 41.7502Z" fill="#C4122F"/>
<path d="M61.4645 70.9992C60.7245 70.5092 60.0045 69.9892 59.3145 69.4492C60.9345 74.3092 64.0245 78.4892 68.0545 81.4692C67.1545 78.9592 66.5245 76.3492 66.1645 73.6692C64.5645 72.8992 62.9845 72.0092 61.4645 70.9892V70.9992Z" fill="#C4122F"/>
<path d="M60.2047 57.1602C59.8347 56.1702 59.5047 55.1702 59.2147 54.1602C58.4647 56.5202 58.0547 59.0402 58.0547 61.6602C58.0547 64.2802 58.4747 66.8702 59.2547 69.2602C60.0047 66.6302 61.0347 64.1202 62.3047 61.7602C61.5147 60.2902 60.8147 58.7602 60.2147 57.1602H60.2047Z" fill="#C4122F"/>
<path d="M66.2344 49.7173C66.4544 48.0873 66.7744 46.4473 67.2044 44.8173C67.4844 43.7773 67.8044 42.7673 68.1544 41.7773C64.0144 44.8073 60.8444 49.1073 59.2344 54.0973C61.4044 52.4173 63.7244 50.9873 66.1544 49.8273C66.1744 49.7973 66.2044 49.7573 66.2244 49.7273L66.2344 49.7173Z" fill="#C4122F"/>
<path d="M62.3549 61.6484C62.3549 61.6484 62.3149 61.7284 62.2949 61.7584C62.3149 61.7984 62.3349 61.8384 62.3549 61.8784C62.3549 61.8084 62.3549 61.7384 62.3549 61.6584C62.3549 61.6584 62.3549 61.6584 62.3549 61.6484Z" fill="#C4122F"/>
<path d="M82.7357 37.0273C82.7357 37.0273 82.7057 37.0273 82.6957 37.0273C82.6657 37.0273 82.6257 37.0273 82.5957 37.0273C82.6157 37.0473 82.6457 37.0573 82.6657 37.0773C82.6857 37.0573 82.7157 37.0473 82.7357 37.0273Z" fill="#C4122F"/>
<path d="M76.346 42.3395C76.346 42.3395 76.406 42.3195 76.426 42.3095C78.316 40.3395 80.406 38.5795 82.656 37.0695C82.636 37.0495 82.606 37.0395 82.586 37.0195C77.196 37.0395 72.206 38.7995 68.166 41.7595C70.936 41.6495 73.676 41.8495 76.346 42.3295V42.3395Z" fill="#C4122F"/>
<path d="M76.5248 81.04C76.5248 81.04 76.4348 81.01 76.3848 81C74.5648 81.33 72.6948 81.53 70.7948 81.6C69.9248 81.63 69.0648 81.63 68.2148 81.6C72.2848 84.56 77.2848 86.31 82.6948 86.31C82.7248 86.31 82.7448 86.31 82.7748 86.31C80.4948 84.78 78.4048 83.01 76.5248 81.05V81.04Z" fill="#C4122F"/>
<path d="M66.1645 73.6788C66.2345 73.7088 66.2945 73.7388 66.3645 73.7688C66.2945 73.6688 66.2145 73.5688 66.1445 73.4688C66.1445 73.5388 66.1645 73.6088 66.1745 73.6788H66.1645Z" fill="#C4122F"/>
<path d="M88.9645 81.0781C87.6245 82.4781 86.2145 83.9281 84.6245 85.1481C84.1145 85.5481 83.5845 85.9281 83.0645 86.2881C88.1845 86.2081 93.1044 84.4681 97.0145 81.7181C94.3744 81.7881 91.5245 81.5481 88.9645 81.0781Z" fill="#C4122F"/>
<path d="M97.8159 79.7398C97.6259 80.3498 97.2159 81.1298 97.0059 81.7198C101.116 78.7098 104.476 74.2798 106.096 69.3398C103.916 71.0398 101.576 72.4798 99.1259 73.6598C98.8559 75.6898 98.4259 77.7198 97.8059 79.7398H97.8159Z" fill="#C4122F"/>
<path d="M106.185 54.2372C106.185 54.2372 106.155 54.1572 106.145 54.1172C106.145 54.1372 106.135 54.1672 106.125 54.1872C106.145 54.2072 106.165 54.2172 106.185 54.2372Z" fill="#C4122F"/>
<path d="M103.086 61.5875C104.116 63.4875 105.006 65.4875 105.726 67.6075C105.896 68.0975 106.046 68.5875 106.186 69.0775C106.926 66.7375 107.326 64.2375 107.326 61.6575C107.326 59.0775 106.926 56.5775 106.186 54.2375C106.166 54.2175 106.146 54.2075 106.126 54.1875C105.366 56.7775 104.346 59.2575 103.086 61.5875Z" fill="#C4122F"/>
<path d="M99.1342 73.6594C99.1342 73.6594 99.1342 73.6194 99.1342 73.6094C99.1142 73.6394 99.0942 73.6594 99.0742 73.6894C99.0942 73.6894 99.1042 73.6694 99.1242 73.6694L99.1342 73.6594Z" fill="#C4122F"/>
<path d="M97.1953 41.75C98.1553 44.37 98.8253 47.06 99.1853 49.78C99.2153 49.83 99.2553 49.87 99.2853 49.92C101.195 50.85 103.045 51.95 104.835 53.22C105.275 53.54 105.705 53.86 106.135 54.19C106.135 54.17 106.145 54.14 106.155 54.12C104.545 49.1 101.365 44.79 97.2053 41.75H97.1953Z" fill="#C4122F"/>
<path d="M103.016 61.6588C103.016 61.6588 103.016 61.6887 103.016 61.6987C103.036 61.6587 103.056 61.6188 103.076 61.5888C103.056 61.5488 103.036 61.5087 103.016 61.4688C103.016 61.5287 103.016 61.5988 103.016 61.6588Z" fill="#C4122F"/>
<path d="M88.836 42.2773C88.836 42.2773 88.856 42.2773 88.866 42.2873C91.146 41.8573 93.506 41.6373 95.916 41.6373C96.296 41.6373 96.686 41.6373 97.066 41.6573C93.036 38.7573 88.086 37.0373 82.736 37.0273C82.716 37.0473 82.686 37.0573 82.666 37.0773C84.926 38.5973 86.986 40.3473 88.836 42.2773Z" fill="#C4122F"/>
<path d="M65.8652 67.2289C64.5652 65.5689 63.3952 63.7789 62.3652 61.8789C62.4152 66.1989 63.8052 70.1989 66.1452 73.4689C65.8852 71.4189 65.7952 69.3389 65.8752 67.2289H65.8652Z" fill="#C4122F"/>
<path d="M66.236 49.7188C66.236 49.7188 66.186 49.7887 66.166 49.8187C66.186 49.8087 66.206 49.7987 66.236 49.7887C66.236 49.7687 66.236 49.7387 66.236 49.7188Z" fill="#C4122F"/>
<path d="M66.2355 49.7891C66.2355 49.7891 66.1955 49.8091 66.1655 49.8191C63.7755 53.1491 62.3655 57.2391 62.3555 61.6491C63.3955 59.7291 64.5955 57.8991 65.9355 56.1991C65.8455 54.0791 65.9355 51.9391 66.2255 49.7891H66.2355Z" fill="#C4122F"/>
<path d="M76.4257 42.3186C76.4257 42.3186 76.3657 42.3386 76.3457 42.3486C76.3657 42.3486 76.3757 42.3486 76.3957 42.3486C76.4057 42.3386 76.4157 42.3286 76.4257 42.3086V42.3186Z" fill="#C4122F"/>
<path d="M72.2444 47.5277C73.4844 45.6677 74.8744 43.9377 76.3944 42.3477C76.3744 42.3477 76.3644 42.3477 76.3444 42.3477C72.2444 43.6877 68.7244 46.3077 66.2344 49.7177C66.2344 49.7377 66.2344 49.7677 66.2344 49.7877C68.1744 48.8677 70.1844 48.1077 72.2444 47.5277Z" fill="#C4122F"/>
<path d="M76.3848 81.0005C76.3848 81.0005 76.4748 81.0305 76.5248 81.0405C76.5048 81.0205 76.4848 81.0005 76.4748 80.9805C76.4448 80.9805 76.4248 80.9805 76.3948 80.9905L76.3848 81.0005Z" fill="#C4122F"/>
<path d="M72.4952 76.0495C70.4152 75.4795 68.3652 74.7195 66.3652 73.7695C68.8552 77.1195 72.4252 79.6595 76.4752 80.9795C76.5052 80.9795 76.4452 80.9795 76.4752 80.9795C75.0152 79.4495 73.6852 77.7995 72.5052 76.0495H72.4952Z" fill="#C4122F"/>
<path d="M76.4659 80.9772C78.4159 81.5972 80.5359 81.9872 82.6859 81.9872C84.8359 81.9872 87.0959 81.6372 88.9559 81.0772C86.8559 80.6672 84.4059 80.1272 82.4159 79.3672C80.4959 80.0572 78.5159 80.5972 76.4659 80.9772Z" fill="#C4122F"/>
<path d="M88.9651 81.0797C92.9151 79.7197 96.6651 76.9797 99.0851 73.6797C97.1951 74.5797 95.2351 75.3297 93.2351 75.8997C92.0851 77.6497 90.4151 79.5097 88.9551 81.0797H88.9651Z" fill="#C4122F"/>
<path d="M99.1445 73.6109C101.575 70.2709 103.015 66.1609 103.025 61.7109C101.985 63.6209 100.785 65.4409 99.4345 67.1309C99.5245 69.2709 99.4345 71.4409 99.1445 73.6109Z" fill="#C4122F"/>
<path d="M99.2855 49.9173C99.2855 49.9173 99.2155 49.8273 99.1855 49.7773C99.1855 49.8073 99.1855 49.8373 99.1955 49.8673C99.2255 49.8773 99.2555 49.8973 99.2855 49.9073V49.9173Z" fill="#C4122F"/>
<path d="M99.5053 56.1872C100.805 57.8272 101.985 59.5972 103.015 61.4672C102.975 57.1672 101.595 53.1772 99.2853 49.9072C99.2553 49.8972 99.2253 49.8772 99.1953 49.8672C99.4753 51.9672 99.5753 54.0772 99.5053 56.1872Z" fill="#C4122F"/>
<path d="M88.8659 42.2873C88.8659 42.2873 88.8459 42.2873 88.8359 42.2773C88.8359 42.2773 88.8359 42.2773 88.8459 42.2873C88.8459 42.2873 88.8559 42.2873 88.8659 42.2873Z" fill="#C4122F"/>
<path d="M88.8657 42.2891C88.8657 42.2891 88.8557 42.2891 88.8457 42.2891C90.4057 43.9091 91.8057 45.6691 93.0457 47.5291C95.1357 48.1191 97.1957 48.8991 99.1957 49.8691C99.1957 49.8391 99.1957 49.8091 99.1857 49.7791C96.6657 46.2891 93.0657 43.6291 88.8657 42.2891Z" fill="#C4122F"/>
<path d="M82.606 44.0298C84.616 43.2798 86.696 42.6998 88.856 42.2998C88.856 42.2998 88.856 42.2998 88.846 42.2898C86.906 41.6798 84.846 41.3398 82.706 41.3398C80.566 41.3398 78.416 41.6898 76.446 42.3198C76.436 42.3298 76.426 42.3398 76.416 42.3598C78.536 42.7398 80.606 43.3098 82.616 44.0398L82.606 44.0298Z" fill="#C4122F"/>
<path d="M82.685 61.7177C82.7181 61.7177 82.745 61.6908 82.745 61.6577C82.745 61.6245 82.7181 61.5977 82.685 61.5977C82.6519 61.5977 82.625 61.6245 82.625 61.6577C82.625 61.6908 82.6519 61.7177 82.685 61.7177Z" fill="#C4122F"/>
<path d="M152.844 152.622C152.944 152.262 152.884 152.552 152.844 152.622Z" fill="#0D3862"/>
<path d="M152.843 152.621C152.943 152.261 152.883 152.551 152.843 152.621C153.013 153.461 153.183 154.251 153.353 155.061C154.553 155.041 155.753 155.041 156.953 155.061H158.133C157.573 154.561 157.243 153.771 157.123 153.041C157.003 152.291 156.933 151.531 156.923 150.771C156.903 147.351 156.923 143.921 156.923 140.501C156.923 140.201 156.923 139.901 156.903 139.601C156.793 137.931 156.063 136.581 154.753 135.541C154.083 135.021 153.343 134.631 152.553 134.341C151.103 133.791 149.583 133.551 148.043 133.441C146.223 133.311 144.403 133.381 142.603 133.681C140.563 134.021 138.723 134.891 136.913 135.841C136.883 135.861 136.873 135.911 136.833 135.991C137.423 137.171 138.093 138.431 138.713 139.671C138.853 139.581 138.863 139.491 138.913 139.431C139.873 138.301 141.133 137.691 142.533 137.311C144.713 136.731 146.923 136.721 149.143 137.031C149.923 137.141 150.673 137.341 151.363 137.721C152.523 138.371 152.993 139.391 152.893 140.681C152.823 141.541 152.493 141.961 151.653 142.161C151.093 142.291 150.513 142.381 149.933 142.391C148.113 142.421 146.293 142.391 144.473 142.431C143.193 142.461 141.913 142.511 140.643 142.661C138.223 142.941 136.253 144.781 135.733 147.141C135.563 147.931 135.583 148.731 135.663 149.531C135.893 151.721 136.963 153.321 138.983 154.241C139.323 154.401 139.683 154.531 140.043 154.641C141.303 155.061 142.623 155.211 143.943 155.281C145.743 155.391 147.543 155.371 149.313 154.971C150.703 154.651 152.093 153.911 152.873 152.631L152.843 152.621ZM142.503 151.501C141.953 151.351 141.403 151.111 140.933 150.791C139.733 149.971 139.493 147.881 140.513 146.821C141.263 146.041 142.523 145.991 143.523 145.911C144.783 145.811 146.053 145.811 147.323 145.811C149.193 145.811 151.253 145.881 152.933 144.971C152.893 146.121 153.053 147.181 152.793 148.221C152.493 149.411 151.743 150.261 150.693 150.871C149.743 151.421 148.703 151.701 147.623 151.801C145.903 151.971 144.183 151.961 142.503 151.501Z" fill="#0D3862"/>
<path d="M30.384 154.73C29.884 154.18 29.604 153.519 29.504 152.789C29.424 152.179 29.364 151.559 29.354 150.939C29.334 148.479 29.354 146.019 29.354 143.549C29.354 142.269 29.374 140.989 29.334 139.709C29.274 137.939 28.494 136.529 27.084 135.459C26.324 134.889 25.484 134.479 24.584 134.189C21.724 133.279 18.804 133.219 15.854 133.539C13.504 133.789 11.394 134.739 9.32397 135.819L9.21397 135.879C9.80397 137.059 10.544 138.459 11.134 139.629L11.324 139.399C12.324 138.249 13.624 137.62 15.064 137.25C17.204 136.7 19.384 136.68 21.554 137C22.214 137.1 22.894 137.289 23.504 137.549C24.824 138.119 25.414 139.189 25.304 140.629C25.244 141.449 24.924 141.9 24.134 142.09C23.574 142.23 22.994 142.309 22.414 142.329C21.034 142.369 19.654 142.359 18.274 142.359C16.554 142.359 14.834 142.359 13.124 142.579C10.684 142.899 8.67397 144.709 8.14397 147.079C7.93397 148.019 7.97398 148.949 8.13398 149.879C8.47398 151.929 9.59398 153.399 11.514 154.219C11.934 154.399 12.364 154.559 12.814 154.679C15.024 155.269 17.274 155.369 19.544 155.209C20.414 155.149 21.294 154.999 22.144 154.799C23.394 154.499 24.434 153.86 25.114 152.73C25.154 152.67 25.214 152.619 25.314 152.519C25.444 153.229 25.534 153.86 25.694 154.48C25.824 154.99 25.874 155.01 26.404 155.01C27.604 155.01 28.804 155.01 30.004 155.01C30.174 155.01 30.344 154.979 30.564 154.959C30.494 154.829 30.464 154.749 30.414 154.689L30.384 154.73ZM25.344 147.59C25.234 148.86 24.604 149.849 23.564 150.579C22.764 151.139 21.874 151.479 20.924 151.649C18.914 152.019 16.904 151.98 14.914 151.48C14.404 151.35 13.884 151.119 13.444 150.829C12.284 150.069 11.974 148.17 12.764 147.03C13.064 146.6 13.484 146.32 13.984 146.2C14.704 146.04 15.434 145.87 16.164 145.84C17.644 145.77 19.124 145.809 20.604 145.769C21.604 145.739 22.604 145.699 23.594 145.579C24.174 145.509 24.734 145.25 25.364 145.06C25.364 145.9 25.424 146.749 25.354 147.579L25.344 147.59Z" fill="#0D3862"/>
<path d="M35.6535 148.581C35.7635 148.671 35.6135 148.511 35.6535 148.581Z" fill="#0D3862"/>
<path d="M52.9633 143.661C52.1133 143.081 51.1833 142.641 50.1533 142.501C48.9633 142.341 47.7733 142.201 46.5733 142.151C44.8133 142.071 43.0533 142.071 41.2933 142.011C40.4933 141.981 39.6933 141.861 38.9633 141.501C38.1933 141.121 37.8933 140.501 38.0233 139.681C38.1333 138.981 38.5333 138.471 39.0833 138.071C39.7133 137.621 40.4233 137.351 41.1733 137.191C43.4733 136.691 45.7833 136.731 48.0733 137.251C49.7233 137.621 51.2233 138.301 52.3533 139.621C52.4033 139.671 52.4833 139.691 52.6133 139.761C53.2233 138.531 53.8333 137.321 54.4533 136.061C53.8233 135.761 53.2233 135.471 52.6333 135.191C48.8933 133.391 44.9833 132.991 40.9333 133.741C39.3633 134.031 37.8833 134.551 36.5533 135.461C34.5633 136.831 33.6733 138.731 33.8933 141.131C34.0533 142.881 34.8833 144.201 36.5033 144.951C37.1133 145.231 37.7733 145.461 38.4233 145.591C40.2333 145.951 42.0733 146.041 43.9133 146.081C44.9733 146.101 46.0333 146.131 47.0933 146.211C47.9733 146.271 48.8433 146.421 49.6433 146.811C50.4633 147.201 50.8933 147.851 50.8833 148.761C50.8833 149.491 50.5233 150.061 49.9633 150.511C49.3233 151.021 48.5833 151.321 47.8033 151.501C45.7733 151.991 43.7233 152.031 41.6633 151.791C40.5033 151.661 39.3833 151.381 38.3133 150.891C37.2933 150.421 36.1533 149.591 35.6033 148.571C35.5533 148.651 35.5133 148.701 35.4933 148.751C34.8733 150.031 34.2633 151.311 33.6133 152.641C34.5033 153.321 35.4633 153.761 36.4633 154.111C40.1733 155.411 43.9633 155.651 47.8233 155.031C49.4133 154.781 50.9333 154.271 52.3033 153.401C54.3933 152.071 55.4233 150.191 55.1933 147.681C55.0433 145.991 54.3333 144.611 52.9133 143.651L52.9633 143.661Z" fill="#0D3862"/>
<path d="M82.2943 154.94C81.2243 153.83 81.1543 152.43 81.1143 151.02C81.1143 150.88 81.1143 150.74 81.1143 150.6C81.1143 146.46 81.1143 142.31 81.1143 138.17C81.1143 137.61 81.1443 137.05 81.1843 136.49C81.2643 135.58 81.5143 134.72 82.1443 134.02C82.1943 133.97 82.2143 133.89 82.2543 133.82C79.2843 133.82 79.2843 133.85 75.8243 133.85C75.8243 133.89 75.8243 133.94 75.8443 133.96C76.7043 134.81 76.9043 135.9 76.9243 137.05C76.9543 138.59 76.9443 140.13 76.9543 141.67C76.9543 141.78 76.9143 141.9 76.8843 142.03H63.8043C63.7743 141.94 63.7443 141.88 63.7443 141.83C63.7443 140.05 63.7443 138.27 63.7943 136.49C63.8243 135.58 64.1043 134.72 64.7343 134.01C64.7943 133.95 64.8043 133.85 64.8443 133.75C62.0043 133.75 61.6443 133.82 58.4043 133.82C58.4443 133.89 58.4743 133.97 58.5243 134.02C59.0943 134.56 59.3343 135.25 59.4443 136C59.5243 136.57 59.5643 137.16 59.5643 137.73C59.5643 142.13 59.5643 146.54 59.5643 150.94C59.5643 151.46 59.5343 151.98 59.4743 152.5C59.3743 153.33 59.1543 154.11 58.5143 154.71C58.4543 154.76 58.4443 154.87 58.4143 154.96H64.8743C64.8143 154.84 64.7643 154.74 64.6943 154.65C64.2643 154.15 64.0043 153.56 63.9043 152.92C63.8143 152.33 63.7543 151.73 63.7443 151.13C63.7243 149.51 63.7443 147.89 63.7443 146.27C63.7443 146.08 63.7643 145.88 63.7843 145.67H76.9343C76.9443 145.92 76.9643 146.14 76.9643 146.35C76.9643 147.41 76.9643 148.47 76.9643 149.53C76.9643 150.39 76.9643 151.25 76.9143 152.11C76.8643 153.09 76.6543 154.02 75.9143 154.74C75.8543 154.8 75.8443 154.91 75.8043 155L82.2843 154.94H82.2943Z" fill="#0D3862"/>
<path d="M103.573 134.551C99.7732 132.941 95.8832 132.951 92.0632 134.491C89.1232 135.671 87.1032 137.801 86.0832 140.831C85.6532 142.111 85.4932 143.441 85.5532 144.791C85.7332 149.001 87.6632 152.101 91.4532 153.981C93.4232 154.961 95.5432 155.321 98.1932 155.331C99.0832 155.341 100.403 155.181 101.713 154.841C106.613 153.561 109.523 149.971 109.963 145.571C110.413 141.011 108.313 136.531 103.593 134.541L103.573 134.551ZM105.083 147.901C103.943 150.111 102.053 151.301 99.6632 151.751C99.0332 151.871 98.3932 151.891 97.7632 151.961C96.3532 151.931 95.0132 151.681 93.7432 151.061C91.3432 149.881 90.0132 147.941 89.7032 145.291C89.5832 144.281 89.6432 143.291 89.9032 142.311C90.5032 140.051 91.8932 138.441 94.0432 137.561C96.5032 136.551 99.0132 136.531 101.463 137.561C104.263 138.731 105.683 140.941 105.863 143.951C105.943 145.331 105.723 146.671 105.083 147.911V147.901Z" fill="#0D3862"/>
<path d="M135.364 155.103C135.484 155.083 135.604 155.033 135.824 154.963C131.874 151.563 128.464 147.763 124.934 144.043C125.314 143.553 125.644 143.133 125.984 142.703C126.324 142.263 126.674 141.823 127.024 141.383C127.354 140.953 127.694 140.533 128.024 140.103C128.354 139.673 128.684 139.243 129.024 138.823C129.374 138.383 129.734 137.953 130.084 137.523C130.434 137.103 130.784 136.693 131.124 136.283C131.484 135.853 131.854 135.433 132.214 135.003C132.544 134.603 132.934 134.233 133.274 133.703H126.814C127.244 134.583 126.954 135.303 126.534 135.973C126.224 136.463 125.894 136.943 125.534 137.393C123.714 139.683 121.894 141.953 120.064 144.243C119.934 144.413 119.804 144.593 119.674 144.763C119.784 144.903 119.874 145.003 119.964 145.113C121.724 147.063 123.464 149.013 125.234 150.943C125.824 151.593 126.444 152.213 127.094 152.813C129.454 154.983 132.224 155.723 135.364 155.113V155.103Z" fill="#0D3862"/>
<path d="M119.294 154.96C119.234 154.85 119.194 154.75 119.124 154.66C118.654 154.11 118.404 153.46 118.314 152.75C118.244 152.22 118.194 151.68 118.194 151.14C118.194 146.64 118.194 142.13 118.194 137.63C118.194 137.45 118.194 137.27 118.194 137.09C118.254 135.98 118.434 134.9 119.214 134.02C119.264 133.97 119.264 133.88 119.294 133.77H112.814C112.914 133.93 112.954 134.04 113.034 134.12C113.524 134.61 113.764 135.22 113.864 135.88C113.954 136.45 114.004 137.03 114.004 137.61C114.014 142.13 114.014 146.66 114.004 151.18C114.004 151.72 113.954 152.26 113.884 152.79C113.784 153.49 113.554 154.15 113.024 154.67C112.954 154.74 112.914 154.86 112.854 154.96H119.294Z" fill="#0D3862"/>
<path d="M14.8435 177.712C14.1035 177.712 13.4235 177.602 12.8135 177.382C12.2035 177.162 11.6735 176.832 11.2335 176.382C10.7935 175.942 10.4535 175.392 10.2135 174.742C9.97352 174.092 9.85352 173.342 9.85352 172.492V165.502H11.2135V172.402C11.2135 173.702 11.5335 174.712 12.1835 175.402C12.8335 176.102 13.7335 176.452 14.8835 176.452C16.0335 176.452 16.8735 176.122 17.5235 175.452C18.1735 174.792 18.5035 173.802 18.5035 172.482V165.492H19.8635V172.372C19.8635 173.252 19.7435 174.022 19.5035 174.692C19.2635 175.352 18.9235 175.912 18.4835 176.362C18.0435 176.812 17.5135 177.142 16.9035 177.362C16.2935 177.582 15.6035 177.692 14.8535 177.692L14.8435 177.712Z" fill="#0D3862"/>
<path d="M28.1133 165.5H29.3833L36.9533 175.13V165.5H38.2733V177.52H37.1933L29.4333 167.67V177.52H28.1133V165.5Z" fill="#0D3862"/>
<path d="M46.8438 165.5H48.2038V177.52H46.8438V165.5Z" fill="#0D3862"/>
<path d="M55.3928 165.5H56.9028L61.1728 175.85L65.4628 165.5H66.9228L61.7528 177.6H60.5528L55.3828 165.5H55.3928Z" fill="#0D3862"/>
<path d="M73.6641 165.5H82.3541V166.72H75.0241V170.86H81.5841V172.08H75.0241V176.3H82.4441V177.52H73.6741V165.5H73.6641Z" fill="#0D3862"/>
<path d="M90.5527 165.502H95.7227C96.4627 165.502 97.1227 165.612 97.7027 165.822C98.2827 166.032 98.7627 166.332 99.1327 166.702C99.4327 167.002 99.6627 167.352 99.8227 167.752C99.9827 168.152 100.063 168.592 100.063 169.072V169.102C100.063 169.602 99.9827 170.052 99.8227 170.452C99.6627 170.842 99.4327 171.192 99.1427 171.482C98.8527 171.772 98.5027 172.012 98.1027 172.202C97.7027 172.392 97.2627 172.522 96.8027 172.602L100.493 177.512H98.8227L95.3427 172.842H91.9127V177.512H90.5527V165.492V165.502ZM95.6127 171.632C96.0627 171.632 96.4727 171.572 96.8527 171.462C97.2327 171.352 97.5627 171.182 97.8327 170.972C98.1127 170.762 98.3227 170.502 98.4827 170.202C98.6327 169.902 98.7127 169.552 98.7127 169.162V169.132C98.7127 168.392 98.4427 167.812 97.9027 167.392C97.3627 166.972 96.6027 166.762 95.6327 166.762H91.9127V171.642H95.6127V171.632Z" fill="#0D3862"/>
<path d="M112.154 177.69C111.194 177.69 110.314 177.53 109.514 177.22C108.714 176.91 107.964 176.42 107.244 175.77L108.084 174.77C108.714 175.34 109.344 175.77 109.994 176.05C110.634 176.33 111.374 176.47 112.204 176.47C113.034 176.47 113.664 176.28 114.154 175.89C114.644 175.51 114.884 175.02 114.884 174.42V174.39C114.884 174.12 114.834 173.87 114.744 173.64C114.654 173.42 114.494 173.21 114.264 173.03C114.034 172.85 113.714 172.68 113.314 172.53C112.904 172.38 112.384 172.24 111.754 172.1C111.064 171.95 110.464 171.78 109.954 171.58C109.444 171.39 109.024 171.15 108.694 170.88C108.364 170.61 108.114 170.29 107.954 169.92C107.794 169.55 107.714 169.12 107.714 168.63V168.6C107.714 168.13 107.814 167.7 108.004 167.3C108.194 166.9 108.474 166.55 108.824 166.26C109.174 165.97 109.594 165.74 110.074 165.57C110.554 165.4 111.084 165.32 111.654 165.32C112.534 165.32 113.304 165.44 113.964 165.69C114.624 165.94 115.264 166.31 115.874 166.8L115.084 167.85C114.524 167.39 113.964 167.06 113.394 166.85C112.824 166.64 112.234 166.54 111.614 166.54C110.824 166.54 110.204 166.73 109.744 167.1C109.284 167.47 109.054 167.93 109.054 168.48V168.51C109.054 168.8 109.104 169.05 109.194 169.27C109.284 169.49 109.454 169.7 109.694 169.89C109.934 170.08 110.264 170.25 110.694 170.4C111.114 170.55 111.664 170.7 112.324 170.84C113.664 171.14 114.654 171.55 115.284 172.08C115.924 172.61 116.234 173.33 116.234 174.24V174.27C116.234 174.79 116.134 175.25 115.924 175.67C115.724 176.09 115.444 176.45 115.084 176.74C114.724 177.04 114.294 177.27 113.794 177.43C113.294 177.59 112.744 177.67 112.144 177.67L112.154 177.69Z" fill="#0D3862"/>
<path d="M124.164 165.5H125.524V177.52H124.164V165.5Z" fill="#0D3862"/>
<path d="M136.233 166.75H132.203V165.5H141.623V166.75H137.593V177.51H136.233V166.75Z" fill="#0D3862"/>
<path d="M151.273 172.76L146.273 165.5H147.923L151.963 171.51L156.043 165.5H157.623L152.623 172.74V177.51H151.263V172.75L151.273 172.76Z" fill="#0D3862"/>
<path d="M381.054 160.031C359.444 150.281 335.464 144.851 310.214 144.851C284.964 144.851 260.954 150.281 239.344 160.031V18.3008H381.074L381.054 160.031Z" fill="#0F2DB3"/>
<path d="M256.324 61.2383C249.664 61.2383 249.124 67.9883 249.124 67.9883H245.944V57.9883H270.744C270.744 57.9883 270.944 65.7183 263.604 73.9183C263.604 73.9183 256.624 82.0283 256.444 85.5783H260.464C266.234 85.5783 266.824 78.8283 266.824 78.8283H270.144V88.8483H244.804C244.804 88.8483 243.874 81.2583 252.664 72.0283C252.664 72.0283 258.074 65.9883 259.324 61.2083L256.324 61.2283V61.2383Z" fill="white"/>
<path d="M319.494 88.8283V85.5583H318.744C317.384 85.5583 316.264 84.4383 316.264 83.0783V63.7383C316.264 62.3783 317.374 61.2583 318.744 61.2583H319.494V57.9883H303.064V61.2583H303.814C305.204 61.2583 306.314 62.3683 306.314 63.7383V83.0783C306.314 84.4383 305.204 85.5583 303.814 85.5583H303.064V88.8283H319.494Z" fill="white"/>
<path d="M299.654 88.8583V78.8383H296.334C296.334 78.8383 295.724 85.5883 289.944 85.5883H286.624V75.0683H287.804C289.194 75.0683 290.304 76.1883 290.304 77.5683V78.8183H293.574V68.0283H290.304V69.2783C290.304 70.6683 289.194 71.7783 287.804 71.7783H286.624V61.2583H289.944C295.714 61.2583 296.334 68.0083 296.334 68.0083H299.654V57.9883H273.514V61.2783H274.264C275.624 61.2783 276.744 62.3983 276.744 63.7583V83.0983C276.744 84.4583 275.634 85.5783 274.264 85.5783H273.514V88.8483L299.654 88.8683V88.8583Z" fill="white"/>
<path d="M336.763 61.2383C343.423 61.2383 343.943 67.9883 343.943 67.9883H347.153V57.9883H323.443C323.443 57.9883 319.693 62.8983 329.493 73.9183C329.493 73.9183 336.443 82.0283 336.633 85.5783H332.633C326.863 85.5783 326.243 78.8283 326.243 78.8283H322.923V88.8483H346.813C346.813 88.8483 351.153 84.1683 340.403 72.0283C340.403 72.0283 334.763 66.2383 333.743 61.2083L336.763 61.2283V61.2383Z" fill="white"/>
<path d="M364.494 61.2383C371.134 61.2383 371.674 67.9883 371.674 67.9883H374.854V57.9883H351.174C351.174 57.9883 347.424 62.8983 357.224 73.9183C357.224 73.9183 364.174 82.0283 364.364 85.5783H360.364C354.594 85.5783 353.974 78.8283 353.974 78.8283H350.654V88.8483H374.544C374.544 88.8483 378.884 84.1683 368.134 72.0283C368.134 72.0283 362.494 66.2383 361.474 61.2083L364.494 61.2283V61.2383Z" fill="white"/>
</svg>
